<svg viewBox="0 0 1280 1280" xmlns="http://www.w3.org/2000/svg" fill-rule="evenodd" clip-rule="evenodd"><path d="M400.294 591.292l84.965 1.677 100.056 18.617 78.445 7.545 103.595 5.869 75.091 3.354 38.57 6.538-66.889 152.77-188.003-12.407-181.297-10.903-44.533-173.06zm216.478 301.513l-34.659 41.923c30.079 8.118 57.28 7.626 81.984-.333l-47.325-41.59z" fill="#873213"/><path d="M818.152 641.449l-64.675 108.528 58.781 35.32 67.367-148.246-37.223-8.789-24.25 13.187z" fill="#692811"/><path d="M582.04 936.845c25.784 7.702 53.568 6.642 82.695-.303m214.5-297.09l-66.104 145.743m-415.014-185.734l47.16 167.797" stroke-width="10" stroke="#692811" fill="none"/><path d="M841.889 635.17l-60.253 124.863" stroke-width="3" stroke="#b1380b" fill="none"/><path d="M769.341 629.676l-33.516 114.441" fill="#953817" stroke-width="3" stroke="#b1380b"/><path d="M484.456 599.132l16.295 141.954" stroke-width="3" stroke="#ab370c" fill="none"/><path d="M586.688 615.73l-9.726 133.693" fill="#923716" stroke-width="3" stroke="#b1380b"/><path d="M662.61 623.909l.269.066.252.113.228.158.194.197.155.229.11.254.062.27.01.277-7.199 136.004-.04.274-.09.262-.136.24-.178.212-.214.176-.243.133-.263.086-.274.036-.277-.014-.269-.066-.252-.113-.228-.158-.194-.197-.155-.229-.11-.254-.062-.27-.011-.277 7.2-136.004.04-.274.089-.261.137-.241.178-.212.214-.176.243-.133.263-.086.274-.036.277.014z" fill="#b1380b"/><path d="M544.391 242.174c-3.914-1.205-6.503-4.922-6.277-9.011.226-4.088 3.209-7.497 7.232-8.264 70.555-13.086 140.813 36.036 207.908 108.48 68.529 4.395 101.992 33.649 95.026 91.565 106.39 11.395 131.033 154.895 32.42 216.659-13.348 12.558-26.562 9.397-39.684-4.529-20.421 18.6-44.283 17.404-71.924-5.536-30.118 25.973-66.284 23.427-107.696-3.854-33.804 15.675-57.629 9.499-75.648-9.391-48.232 19.097-82.656 14.023-102.481-16.603-132.611 61.199-205.621-155.425-15.091-185.636-10.449-61.357 47.072-73.978 105.463-77.64 64.235-4.028 54.623-70.74-29.248-96.24z" fill="#f19c14"/><path d="M565.242 234.105c94.756 32.561 161.124 90.107 185.972 156.416 46.83 3.418 60.557 29.424 59.934 60.214 115.545 66.267 9.946 197.71-12.246 184.631 0 0-5.834 11.243-27.584-12.548-25.133 20.267-59.615 24.547-111.05-.165-20.837 10.654-45.418 10.609-77.511-10.903-38.483 16.836-72.358 18.235-95.216-17.269-208.081 44.614-120.83-191.303-13.786-173.059-3.915-7.588 5.586-73.867 72.602-72.038 133.984 3.657 64.827-82.505 18.885-115.279z" fill="#ffaf29"/><path d="M717.567 426.62c-35.855 53.519-64.888 63.702-103.183 70.894-42.592 8-132.55 5.051-132.55 5.051 108.448 66.32 227.686-13.625 235.733-75.945zm81.041 29.482s2.24 39.207-37.752 73.553c-32.876 28.234-76.4 41.056-76.4 41.056 103.153-12.652 115.92-49.625 114.152-114.609zm-160.164-119.747s-5.354 32.567-25.628 53.697c-20.705 21.581-63.432 32.111-63.432 32.111 92.857-13.436 87.458-34.411 89.059-85.808z" fill="#f19c14"/><path d="M568.895 222.788l.413.002.413.004.412.005.413.006.413.008.413.009.412.01.413.012.413.012.412.015.413.015.413.017.412.018.413.019.413.021.412.022.413.023.412.025.413.026.412.027.413.028.412.03.413.031.412.032.413.034.412.035.412.036.413.037.412.039.412.04.413.041.412.043.412.044.413.045.412.046.412.048.412.048.413.051.412.051.412.053.412.053.412.056.412.056.412.058.412.058.412.061.412.061.412.063.412.063.412.066.412.066.412.067.412.069.412.07.412.072.412.072.411.074.412.075.412.076.412.077.412.079.411.08.412.081.412.082.411.084.412.084.411.086.412.087.412.089.411.089.412.091.411.092.411.093.412.094.411.096.412.097.411.097.411.1.412.1.411.101.411.103.411.104.412.105.411.106.411.108.411.108.411.11.411.111.411.112.412.113.411.115.41.115.411.117.411.118.411.119.411.12.411.122.411.122.411.124.41.125.411.126.411.127.411.128.41.13.411.13.411.132.41.133.411.134.41.135.411.136.41.138.411.138.41.14.41.141.411.142.41.143.41.144.411.145.41.147.41.147.41.149.41.15.411.151.41.152.41.153.41.154.41.155.41.157.41.157.41.159.41.16.409.161.41.161.41.163.41.165.409.165.41.166.41.167.409.169.41.169.41.171.409.172.41.173.409.173.41.175.409.176.409.177.41.179.409.179.409.18.41.181.409.183.409.183.409.185.409.185.409.187.409.188.409.189.409.189.409.191.409.192.409.193.409.194.409.195.408.196.409.197.409.198.408.199.409.201.409.201.408.202.409.203.408.205.409.205.408.206.408.208.409.208.408.21.408.21.408.212.409.212.408.213.408.215.408.215.408.217.408.217.408.219.408.219.408.221.408.221.407.223.408.223.408.225.407.225.408.227.408.227.407.228.408.23.407.23.408.232.407.232.408.233.407.235.407.235.407.236.408.237.407.238.407.239.407.241.407.241.407.242.407.243.407.243.407.245.407.246.406.247.407.248.407.248.407.25.406.251.407.251.406.252.407.254.406.254.407.255.406.257.406.257.407.258.406.259.406.26.406.261.407.261.406.263.406.264.406.264.406.266.405.266.406.267.406.268.406.269.406.27.405.271.406.272.405.273.406.273.405.275.406.275.405.277.406.277.405.278.405.279.405.28.406.28.405.282.405.283.81.567.81.571.809.575.81.578.809.582.809.585.809.588.809.592.808.596.808.599.808.602.808.605.808.609.807.612.808.616.807.619.807.622.806.625.807.629.806.632.806.635.806.639.806.642.805.645.805.648.805.651.805.654.805.658.804.661.804.664.804.667.804.67.803.673.804.676.803.679.802.683.803.685.802.688.802.692.802.694.802.697.802.701.801.703.801.706.801.709.8.712.8.715.8.717.8.721.8.723.799.727.799.729.799.731.799.735.798.737.798.741.798.743.798.745.797.749.797.751.797.753.797.757.796.759.797.762.795.764.796.767.796.77.795.772.795.775.794.777.795.78.794.783.794.785.793.787.793.79.794.792.792.795.793.798.792.8.792.802.792.805.791.807.791.809.791.812.791.814.79.817.79.819.79.821.79.823.789.826.789.828.789.83.788.833.788.835.788.837.788.839.787.841.787.844.787.846.786.847.802.053.798.055.795.057.792.06.788.061.786.064.782.067.779.068.775.071.773.073.769.076.766.078.763.08.76.082.756.085.753.087.75.089.746.091.744.094.74.096.737.099.733.101.731.103.727.105.724.108.72.11.718.112.714.115.71.117.708.119.704.121.701.124.698.126.694.129.691.131.688.133.685.135.681.138.678.14.675.143.672.145.668.147.665.149.331.076.33.076.33.077.329.077.328.078.327.079.326.079.325.079.325.081.324.08.323.082.322.082.321.083.321.083.319.084.319.084.318.085.317.085.317.087.315.086.315.088.314.088.313.088.312.089.311.09.311.09.31.091.309.091.308.092.307.093.306.093.306.094.305.094.304.095.303.096.302.096.301.097.301.097.3.098.299.098.298.099.297.1.296.1.296.101.295.102.294.102.293.102.292.104.291.103.291.105.29.105.289.105.288.107.287.106.286.108.286.108.285.108.284.109.283.11.282.11.281.111.281.112.279.112.279.113.278.113.278.114.276.114.275.116.275.115.274.117.273.116.272.118.271.118.271.119.27.119.268.12.268.12.267.121.267.122.265.122.265.123.263.123.263.124.262.125.262.125.26.126.259.127.259.127.258.127.257.128.256.129.255.13.255.13.253.13.253.132.252.131.251.133.25.133.25.133.248.135.248.134.247.136.246.136.245.137.244.137.244.138.242.138.242.139.241.14.24.14.239.141.239.141.237.142.237.143.235.143.235.144.234.144.234.146.232.145.232.146.23.147.23.148.229.148.228.149.228.149.226.15.226.15.224.151.224.152.223.152.222.153.222.154.22.154.22.155.218.155.218.156.217.157.216.157.216.157.214.159.214.159.213.159.211.161.212.16.21.162.209.162.208.162.208.164.207.164.206.164.205.165.204.166.203.166.203.167.201.167.201.169.2.168.199.17.198.17.197.17.197.171.195.172.195.173.194.173.193.173.192.174.191.175.19.176.19.176.188.176.188.178.187.178.186.178.185.179.185.18.183.18.183.181.182.182.18.182.18.183.18.183.178.184.177.185.177.185.175.186.175.187.174.187.173.187.172.189.172.189.17.189.17.19.168.191.168.192.167.192.166.192.166.194.164.194.163.194.163.195.162.196.161.196.16.197.159.198.158.198.158.199.156.199.156.2.154.201.154.201.153.202.153.203.151.203.15.204.15.204.148.205.148.206.147.206.146.207.145.208.145.208.143.208.143.21.141.21.141.21.14.212.139.211.138.213.137.213.137.214.135.214.135.215.134.216.132.216.132.217.132.217.13.218.129.219.129.219.127.22.127.221.126.221.125.222.124.222.123.223.122.224.122.225.12.224.12.226.119.226.118.227.117.228.116.228.115.228.114.23.114.23.112.23.112.232.111.231.11.233.109.233.108.234.107.234.107.235.105.236.105.236.103.237.103.237.102.238.101.239.1.24.1.24.098.24.098.242.096.241.096.243.095.243.094.244.093.244.092.245.091.246.091.247.089.246.089.248.088.248.086.249.086.25.085.25.085.251.083.251.082.252.082.253.08.253.08.254.079.254.078.256.077.255.076.257.075.257.074.258.074.258.072.259.072.26.071.26.069.261.069.261.068.262.068.263.066.264.065.264.065.264.063.266.063.266.062.266.061.268.06.268.059.268.058.269.057.27.056.271.056.271.054.271.054.273.053.273.052.273.051.275.05.275.049.275.048.276.048.277.046.278.046.278.044.279.044.279.043.28.042.281.041.281.04.282.039.282.039.284.037.284.037.284.035.285.035.286.034.287.033.287.032.287.031.289.03.289.029.289.028.291.028.291.027.291.025.293.025.292.024.294.023.294.022.295.021.295.02.296.019.297.019.298.017.298.017.298.015.3.015.3.014.3.013.301.012.302.011.303.01.303.009.304.009.304.007.306.006.305.006.307.005.307.004.308.002.308.002.309.001.31.001.31-.001.311-.002.312-.003.312-.003.313-.005.313-.005.315-.006.315-.007.315-.008.316-.01.317-.009.317-.011.319-.012.318-.013.32-.013.32-.015.321-.015.321-.017.322-.017.323-.018.323-.019.324-.021.325-.021.325-.021.326-.023.326-.024.328-.025.328-.025.328-.027.329-.027.33-.028.331-.03.331-.03.332-.031.332-.032.333-.033.334-.034.334-.035.336-.035.335-.037.337-.038.337-.038.337-.04.339-.04.339.311.034.311.034.311.035.31.036.31.037.309.038.308.038.309.039.307.04.307.04.307.042.307.042.305.042.306.044.305.044.304.045.304.046.303.046.303.047.303.048.302.049.302.049.301.05.3.051.3.052.3.052.299.053.299.053.298.055.298.055.297.056.297.057.297.057.296.058.295.059.295.059.294.06.294.061.294.062.293.062.292.063.293.064.291.064.291.065.291.066.29.067.29.067.289.068.289.069.288.069.288.07.287.071.287.071.286.072.286.073.285.074.285.074.285.075.284.075.283.076.283.077.282.078.282.078.282.079.281.08.281.08.28.081.279.082.279.082.279.083.278.084.278.084.277.085.277.086.276.087.275.087.276.087.274.089.275.089.273.089.274.091.273.091.272.092.272.092.271.093.271.093.27.095.27.095.269.095.269.097.269.096.268.098.267.098.267.099.267.1.265.1.266.1.265.102.264.102.264.103.264.103.263.104.262.104.263.106.261.105.261.107.261.107.26.108.259.108.259.109.259.11.258.11.258.111.257.111.256.112.256.113.256.114.255.114.255.114.254.115.254.116.253.116.252.117.253.118.251.118.251.119.251.12.25.12.25.12.249.122.249.121.248.123.248.123.247.124.246.124.247.125.245.125.245.126.245.127.244.127.244.128.243.128.243.129.242.13.242.13.241.131.241.131.24.132.479.265.476.268.475.27.473.272.471.275.469.277.466.279.465.282.463.283.46.286.459.288.457.291.454.292.453.295.45.297.449.299.446.301.445.304.442.305.44.308.439.31.436.312.434.314.432.316.43.318.428.321.426.322.424.324.422.327.42.328.418.331.415.332.414.335.411.337.41.338.407.341.405.342.404.345.401.346.399.348.397.351.395.352.393.354.39.356.389.358.386.36.385.362.382.363.38.366.379.367.376.369.374.371.371.373.37.374.368.377.365.378.364.38.361.382.359.383.357.385.355.387.353.389.351.391.348.392.347.394.344.395.342.397.34.399.338.401.336.402.334.404.331.405.329.408.328.408.325.411.323.412.32.413.319.415.317.417.314.418.312.42.31.422.308.423.306.424.303.426.301.427.3.429.297.431.294.432.293.433.291.435.288.436.286.438.284.439.282.44.279.442.278.444.275.444.273.447.271.447.268.449.267.45.264.452.262.453.26.454.258.455.255.457.253.458.251.46.249.46.247.462.244.463.242.465.24.465.238.467.235.468.234.47.231.47.228.472.227.473.224.474.222.475.22.476.218.478.215.479.214.479.211.481.208.482.207.483.204.484.202.486.2.486.197.487.195.489.193.489.191.49.188.492.186.492.184.494.182.494.179.496.177.496.175.497.173.499.17.499.168.5.166.501.163.502.161.503.159.504.157.505.154.505.152.507.15.507.147.508.145.509.143.51.14.51.139.512.136.512.133.513.131.513.129.515.127.515.124.516.122.517.12.518.118.518.115.519.112.519.111.521.108.521.106.521.103.523.101.523.099.523.097.525.094.524.092.526.089.526.087.527.085.527.082.528.08.528.078.529.075.53.074.53.07.531.068.531.066.531.064.532.061.533.059.533.057.534.054.534.051.534.05.535.047.536.044.535.043.537.04.536.037.537.035.538.033.537.03.538.028.539.026.539.023.539.021.539.018.54.016.54.014.541.011.54.008.541.007.542.004.541.001.542-.001.542-.003.542-.006.543-.008.542-.01.543-.013.543-.015.544-.018.543-.021.544-.022.543-.025.544-.028.544-.03.545-.032.544-.035.544-.037.545-.04.544-.042.545-.045.545-.047.545-.049.544-.052.545-.054.545-.057.545-.059.545-.062.545-.064.545-.067.545-.069.545-.072.545-.074.545-.076.544-.079.545-.082.545-.084.544-.086.545-.089.544-.092.544-.093.544-.097.544-.099.544-.101.544-.104.544-.106.543-.109.543-.111.543-.114.543-.116.543-.119.542-.121.542-.124.542-.126.542-.129.541-.131.541-.134.541-.136.541-.139.54-.142.54-.144.54-.146.539-.149.539-.151.539-.154.538-.157.538-.159.538-.161.537-.164.537-.167.536-.169.536-.172.536-.174.535-.177.535-.179.534-.182.534-.185.533-.187.533-.189.533-.192.532-.195.531-.197.531-.2.53-.202.53-.205.53-.208.528-.21.529-.212.527-.215.527-.218.527-.22.526-.223.525-.226.524-.228.524-.23.524-.233.523-.236.522-.239.521-.241.521-.243.52-.246.519-.249.519-.251.518-.254.517-.257.516-.259.516-.262.515-.264.514-.267.514-.27.512-.272.512-.275.511-.277.511-.28.509-.283.509-.285.507-.288.507-.29.506-.293.506-.296.504-.299.503-.301.503-.303.502-.307.5-.309.5-.311.499-.314.498-.317.497-.32.496-.322.495-.325.494-.327.493-.33.492-.333.491-.335.49-.338.489-.341.488-.343.487-.347.486-.348.485-.352.483-.354.483-.356.482-.36.48-.362.479-.365.478-.367.477-.37.476-.373.475-.375.474-.379.472-.38.471-.384.47-.386.469-.389.468-.392.466-.394.465-.397.464-.4.463-.402.461-.405.461-.408.458-.411.458-.413.456-.416.455-.418.454-.422.452-.424.451-.427.45-.429.448-.433.447-.434.446-.438.444-.441.443-.443.441-.446.44-.448.439-.452.437-.454.435-.457.435-.459.432-.463.432-.465.43-.467.428-.471.427-.473.425-.476.424-.479.422-.482.421-.484.419-.487.418-.49.416-.493.414-.495.413-.498.412-.501.409-.252.205-.252.204-.253.203-.253.203-.255.203-.255.202-.255.202-.257.201-.257.201-.258.201-.258.2-.259.2-.26.199-.26.199-.262.198-.262.198-.262.198-.264.197-.264.197-.264.196-.266.196-.266.196-.267.195-.267.195-.268.194-.269.194-.27.193-.27.193-.271.192-.272.193-.272.191-.273.191-.274.191-.275.19-.275.19-.276.19-.276.189-.278.188-.278.188-.278.188-.28.187-.28.187-.281.186-.281.186-.282.185-.283.185-.284.184-.284.184-.285.184-.286.183-.286.182-.288.182-.287.182-.289.181-.156.147-.157.145-.156.143-.156.142-.157.141-.156.139-.157.138-.156.137-.156.135-.157.133-.156.132-.156.131-.156.129-.157.128-.156.127-.156.125-.156.124-.157.122-.156.121-.156.119-.156.118-.156.117-.156.115-.157.114-.156.112-.156.111-.156.11-.156.108-.156.107-.156.106-.156.104-.156.102-.156.102-.156.1-.156.098-.156.097-.156.096-.156.095-.156.093-.156.091-.156.091-.156.089-.156.087-.156.086-.156.085-.156.084-.155.082-.156.081-.156.079-.156.078-.156.077-.156.076-.155.074-.156.072-.156.072-.156.07-.155.068-.156.068-.156.066-.156.064-.155.064-.156.062-.156.06-.155.06-.156.058-.156.056-.155.056-.156.054-.156.053-.155.051-.156.05-.155.049-.156.047-.156.047-.155.044-.156.044-.155.042-.156.041-.155.04-.156.038-.155.037-.156.036-.155.034-.156.034-.155.032-.155.03-.156.029-.155.028-.156.027-.155.026-.155.024-.156.023-.155.021-.155.021-.156.019-.155.018-.155.016-.156.015-.155.014-.155.013-.156.012-.155.01-.155.009-.155.007-.155.007-.156.005-.155.004-.155.003-.155.001h-.155l-.156-.001-.155-.002-.155-.003-.155-.005-.155-.006-.155-.007-.155-.009-.155-.01-.155-.011-.156-.012-.155-.013-.155-.015-.155-.016-.155-.017-.155-.018-.155-.019-.155-.021-.155-.022-.155-.023-.155-.025-.155-.025-.155-.027-.154-.028-.155-.029-.155-.03-.155-.032-.155-.033-.155-.034-.155-.035-.155-.036-.155-.038-.154-.038-.155-.04-.155-.041-.155-.043-.155-.043-.154-.045-.155-.046-.155-.047-.155-.048-.154-.049-.155-.051-.155-.052-.155-.052-.154-.054-.155-.056-.155-.056-.154-.058-.155-.058-.155-.06-.154-.061-.155-.062-.155-.063-.154-.065-.155-.066-.154-.066-.155-.068-.155-.069-.154-.07-.155-.072-.154-.072-.155-.074-.154-.074-.155-.076-.154-.077-.155-.078-.154-.08-.155-.08-.154-.082-.155-.082-.154-.084-.155-.085-.154-.086-.155-.087-.154-.088-.154-.089-.155-.091-.154-.091-.155-.093-.154-.094-.154-.094-.155-.096-.154-.097-.154-.099-.155-.099-.154-.1-.154-.102-.155-.102-.154-.104-.154-.104-.154-.106-.155-.107-.154-.108-.154-.109-.154-.11-.155-.111-.154-.112-.154-.114-.154-.114-.154-.115-.155-.117-.154-.118-.154-.118-.154-.12-.154-.121-.154-.121-.155-.123-.154-.124-.154-.125-.154-.126-.154-.127-.154-.129-.154-.129-.154-.13-.154-.131-.154-.133-.154-.133-.154-.134-.154-.136-.154-.136-.154-.138-.154-.138-.154-.14-.154-.14-.154-.142-.154-.142-.154-.144-.154-.145-.308-.292-.308-.296-.307-.301-.308-.304-.308-.309-.308-.312-.307-.317-.308-.32-.307-.325-.24.217-.24.216-.24.213-.24.212-.241.209-.241.208-.241.207-.242.204-.242.203-.242.2-.243.199-.243.197-.243.195-.244.194-.244.191-.244.19-.244.188-.245.186-.245.185-.246.182-.246.181-.246.179-.246.177-.247.175-.247.173-.247.172-.248.169-.248.168-.248.166-.249.165-.249.162-.249.16-.25.159-.25.157-.25.155-.251.153-.25.152-.252.149-.251.148-.252.146-.252.144-.253.142-.252.14-.254.138-.253.137-.254.135-.254.133-.254.131-.255.129-.255.128-.255.125-.256.124-.256.122-.256.12-.257.118-.257.116-.257.115-.258.112-.258.111-.258.109-.259.107-.259.105-.259.103-.259.102-.26.099-.261.098-.26.096-.261.094-.261.092-.262.091-.261.088-.262.087-.263.084-.263.083-.263.081-.263.079-.264.078-.264.075-.265.074-.264.071-.265.07-.266.068-.265.066-.266.064-.267.063-.266.06-.267.059-.268.057-.267.054-.268.053-.269.051-.268.05-.269.047-.27.045-.269.044-.27.042-.27.04-.271.038-.271.036-.271.034-.272.032-.272.031-.272.028-.273.027-.272.024-.274.023-.273.021-.274.019-.274.018-.275.015-.275.013-.275.012-.275.01-.276.007-.276.006-.277.004-.277.002-.277.001-.277-.002-.278-.004-.278-.005-.279-.007-.278-.01-.28-.011-.279-.013-.28-.015-.28-.017-.28-.019-.281-.02-.281-.023-.282-.024-.282-.027-.282-.028-.282-.03-.283-.032-.283-.034-.283-.036-.284-.038-.284-.04-.285-.041-.284-.044-.286-.045-.285-.048-.286-.049-.286-.051-.286-.053-.287-.055-.287-.057-.288-.059-.287-.061-.288-.063-.289-.064-.289-.067-.289-.068-.289-.071-.29-.072-.29-.074-.29-.076-.291-.078-.291-.08-.292-.082-.291-.084-.292-.086-.293-.087-.293-.09-.293-.091-.293-.094-.294-.095-.294-.097-.294-.1-.295-.101-.295-.103-.296-.105-.296-.107-.296-.109-.296-.111-.297-.112-.297-.115-.298-.117-.297-.118-.298-.121-.299-.122-.299-.125-.299-.126-.299-.128-.3-.131-.3-.132-.301-.134-.301-.136-.301-.138-.301-.14-.302-.142-.302-.143-.303-.146-.303-.148-.303-.15-.304-.151-.303-.154-.305-.155-.304-.158-.305-.159-.305-.161-.306-.164-.306-.165-.306-.167-.307-.169-.307-.172-.307-.173-.308-.175-.308-.177-.308-.179-.308-.181-.309-.182-.31-.185-.309-.187-.31-.189-.311-.191-.31-.192-.311-.195-.312-.197-.312-.198-.312-.201-.312-.202-.313-.205-.313-.206-.313-.209-.314-.21-.314-.212-.315-.215-.314-.216-.315-.218-.316-.221-.316-.222-.316-.224-.316-.226-.317-.228-.317-.231-.318-.232-.318-.234-.318-.236-.319-.238-.319-.24-.319-.242-.319-.244-.32-.246-.321-.248-.32-.25-.321-.252-.322-.254-.321-.255-.322-.258-.323-.26-.322-.262-.323-.264-.324-.266-.324-.268-.353.304-.354.3-.354.298-.355.295-.355.293-.356.29-.357.287-.357.285-.357.282-.359.28-.358.277-.36.274-.36.272-.36.269-.361.267-.361.264-.362.262-.363.258-.363.257-.364.253-.364.252-.365.248-.365.246-.366.243-.367.241-.367.239-.367.235-.368.233-.369.231-.369.228-.37.225-.37.223-.371.22-.371.218-.372.215-.372.212-.373.21-.374.208-.374.205-.375.202-.375.2-.375.197-.377.194-.376.193-.378.189-.377.187-.379.184-.379.182-.379.18-.38.176-.381.175-.381.171-.382.17-.382.166-.382.164-.384.162-.383.159-.385.156-.385.154-.385.152-.386.148-.386.147-.387.144-.388.141-.388.139-.389.136-.389.134-.389.131-.391.129-.39.126-.392.123-.391.122-.393.118-.393.116-.393.114-.394.111-.394.109-.395.106-.396.103-.396.101-.397.099-.397.096-.397.094-.399.091-.398.088-.4.086-.399.084-.401.081-.4.079-.402.076-.402.073-.402.071-.403.069-.404.066-.404.064-.404.061-.405.059-.406.056-.406.054-.406.051-.408.049-.407.046-.408.044-.409.041-.409.039-.41.037-.41.034-.411.031-.412.029-.411.027-.413.024-.413.022-.413.019-.414.017-.415.014-.415.012-.415.009-.416.007-.417.004-.417.002h-.417l-.418-.003-.419-.005-.419-.008-.42-.01-.42-.013-.421-.015-.421-.017-.422-.02-.422-.023-.423-.025-.423-.027-.424-.03-.424-.032-.425-.034-.425-.037-.426-.04-.426-.042-.427-.044-.428-.047-.428-.049-.428-.051-.429-.054-.429-.057-.43-.058-.431-.062-.431-.063-.431-.066-.432-.069-.433-.071-.433-.073-.434-.076-.434-.078-.434-.08-.435-.083-.436-.085-.436-.088-.436-.09-.438-.092-.437-.095-.438-.098-.439-.099-.439-.102-.44-.105-.44-.107-.441-.109-.441-.111-.441-.114-.443-.117-.442-.119-.443-.121-.444-.123-.444-.126-.445-.128-.445-.131-.446-.133-.446-.135-.447-.138-.447-.14-.448-.143-.448-.145-.449-.147-.449-.15-.45-.151-.45-.155-.451-.157-.451-.159-.452-.161-.452-.164-.452-.166-.454-.168-.453-.171-.455-.173-.454-.176-.456-.178-.455-.18-.457-.183-.456-.184-.457-.188-.458-.189-.458-.192-.459-.194-.459-.197-.46-.199-.46-.201-.461-.204-.461-.206-.462-.208-.462-.211-.462-.213-.464-.215-.463-.218-.464-.22-.465-.222-.465-.224-.466-.227-.466-.229-.466-.232-.467-.234-.468-.236-.468-.238-.469-.241-.469-.243-.469-.246-.47-.247-.471-.25-.471-.253-.471-.254-.472-.257-.473-.259-.473-.262-.473-.264-.474-.266-.474-.268-.475-.271-.476-.273-.476-.275-.476-.278-.477-.28-.477-.282-.478-.284-.478-.287-.479-.289-.479-.291-.48-.294-.48-.296-.481-.298-.481-.3-.482-.303-.482-.305-.483-.307-.483-.31-.483-.311-.485-.314-.484-.317-.485-.318-.396.182-.395.181-.393.179-.393.176-.392.175-.392.173-.39.171-.389.169-.389.166-.387.165-.387.163-.385.161-.385.159-.384.157-.383.155-.382.153-.382.151-.38.149-.38.148-.378.145-.378.143-.377.142-.376.139-.375.138-.374.135-.373.134-.373.132-.371.13-.371.128-.37.126-.369.124-.368.123-.367.12-.367.118-.365.117-.365.115-.364.113-.362.111-.363.109-.361.107-.36.105-.36.104-.358.101-.358.1-.357.098-.356.096-.355.094-.355.093-.353.09-.353.089-.352.087-.351.085-.35.083-.35.081-.348.08-.348.078-.347.075-.346.074-.345.073-.345.07-.343.069-.343.067-.342.065-.341.063-.34.061-.34.06-.339.058-.338.056-.337.054-.336.053-.335.051-.335.049-.334.047-.333.045-.332.044-.331.042-.331.04-.33.039-.329.037-.328.034-.328.034-.326.031-.326.03-.325.028-.324.026-.324.025-.323.023-.321.021-.322.019-.32.018-.319.016-.319.014-.318.013-.318.011-.316.009-.316.008-.315.006-.314.004-.313.002-.313.001-.312-.001-.311-.002-.31-.004-.31-.006-.308-.008-.309-.009-.307-.011-.306-.012-.306-.014-.305-.016-.305-.018-.303-.019-.303-.02-.302-.023-.301-.024-.301-.025-.3-.027-.299-.029-.298-.031-.298-.032-.297-.033-.296-.036-.295-.036-.295-.039-.294-.04-.293-.042-.293-.043-.291-.045-.291-.046-.291-.048-.289-.05-.289-.051-.289-.052-.287-.055-.287-.055-.286-.058-.285-.059-.285-.06-.284-.062-.283-.064-.282-.065-.282-.067-.281-.068-.281-.07-.279-.071-.279-.073-.279-.074-.277-.076-.277-.077-.277-.079-.275-.08-.275-.082-.274-.084-.274-.085-.272-.086-.273-.088-.271-.089-.271-.091-.27-.093-.269-.093-.269-.096-.268-.096-.267-.099-.267-.099-.266-.102-.266-.102-.264-.104-.264-.106-.264-.107-.262-.108-.262-.11-.262-.112-.261-.112-.26-.115-.259-.115-.259-.117-.258-.119-.258-.12-.256-.121-.257-.123-.255-.124-.255-.126-.254-.127-.254-.128-.253-.13-.252-.131-.252-.133-.251-.134-.25-.135-.25-.137-.249-.138-.249-.139-.248-.141-.247-.142-.247-.144-.246-.145-.245-.146-.245-.148-.244-.149-.244-.15-.243-.152-.242-.153-.242-.155-.241-.155-.241-.157-.24-.159-.239-.16-.239-.161-.238-.162-.237-.164-.237-.165-.236-.166-.236-.168-.235-.169-.235-.17-.234-.171-.233-.173-.233-.174-.232-.176-.231-.177-.231-.178-.231-.179-.23-.18-.229-.182-.228-.183-.229-.185-.227-.185-.227-.187-.226-.188-.226-.19-.225-.19-.225-.192-.224-.193-.223-.194-.223-.196-.223-.197-.222-.198-.221-.199-.221-.201-.22-.201-.219-.203-.219-.204-.219-.206-.218-.206-.217-.208-.217-.209-.216-.21-.216-.212-.215-.212-.215-.214-.214-.215-.213-.216-.213-.217-.213-.219-.212-.219-.211-.221-.565.223-.563.22-.562.218-.561.216-.56.214-.558.212-.557.209-.556.207-.554.205-.553.203-.552.201-.551.198-.549.196-.548.194-.547.192-.546.189-.544.187-.543.185-.542.183-.541.181-.539.178-.538.176-.536.174-.536.171-.534.17-.533.167-.532.165-.53.163-.529.16-.528.159-.526.156-.526.154-.523.151-.523.15-.522.147-.52.145-.519.142-.517.141-.517.138-.515.136-.513.134-.513.131-.511.13-.51.127-.509.124-.507.123-.506.12-.505.119-.504.115-.502.114-.501.111-.5.11-.498.107-.498.104-.495.103-.495.1-.493.098-.492.096-.491.093-.49.091-.488.089-.487.087-.486.085-.484.082-.483.08-.482.078-.48.075-.48.074-.477.071-.477.068-.476.067-.474.064-.472.062-.472.06-.47.058-.469.055-.468.053-.466.051-.465.049-.464.046-.463.044-.461.042-.46.039-.459.038-.457.035-.456.032-.455.031-.453.028-.453.026-.451.024-.449.021-.449.02-.447.017-.446.014-.444.013-.443.01-.442.008-.441.006-.439.003-.438.001-.437-.001-.435-.003-.434-.006-.433-.008-.432-.01-.43-.012-.429-.015-.428-.017-.426-.019-.425-.022-.424-.023-.423-.026-.421-.029-.42-.03-.418-.033-.418-.035-.416-.037-.414-.04-.414-.042-.412-.044-.411-.047-.409-.048-.409-.051-.406-.054-.406-.055-.404-.058-.403-.06-.402-.062-.401-.065-.399-.067-.398-.069-.396-.072-.395-.073-.394-.076-.393-.079-.391-.08-.39-.083-.389-.085-.387-.088-.387-.09-.384-.092-.384-.094-.382-.096-.381-.099-.38-.101-.378-.104-.377-.105-.375-.108-.375-.111-.373-.112-.372-.115-.37-.117-.369-.12-.368-.121-.367-.124-.365-.127-.364-.128-.362-.131-.362-.133-.36-.136-.358-.137-.358-.14-.356-.143-.355-.144-.353-.147-.352-.15-.351-.151-.349-.154-.349-.156-.346-.158-.346-.161-.344-.163-.343-.165-.342-.168-.34-.17-.339-.172-.338-.174-.336-.177-.335-.179-.334-.182-.332-.183-.332-.186-.329-.189-.329-.19-.327-.193-.326-.195-.324-.198-.324-.2-.321-.202-.321-.204-.319-.207-.318-.209-.317-.211-.315-.214-.314-.216-.313-.218-.311-.221-.31-.223-.309-.225-.307-.227-.306-.23-.305-.232-.304-.235-.302-.237-.3-.239-.3-.241-.298-.244-.297-.246-.295-.248-.295-.251-.292-.253-.292-.255-.29-.258-.289-.26-.288-.262-.286-.264-.285-.267-.283-.269-.282-.272-.281-.274-.28-.276-.278-.278-.277-.281-.276-.283-.274-.286-.273-.288-.272-.29-.27-.292-.269-.295-.268-.297-.266-.299-.265-.302-.264-.304-.262-.307-.261-.308-.26-.311-.258-.314-.257-.315-.256-.319-.254-.32-.253-.323-.252-.325-.25-.327-.249-.33-.248-.332-.246-.334-.245-.337-.244-.339-.242-.341-.241-.344-.24-.346-.238-.348-.237-.351-.236-.353-.234-.356-.233-.357-.388.178-.388.177-.388.175-.387.174-.387.172-.387.171-.386.169-.386.167-.386.166-.385.165-.385.162-.384.162-.384.159-.384.158-.384.157-.383.155-.382.153-.383.152-.382.15-.381.149-.382.147-.381.146-.38.144-.38.143-.38.141-.38.14-.379.138-.378.136-.379.135-.378.134-.377.132-.377.13-.377.129-.377.128-.376.126-.375.124-.376.123-.375.122-.374.12-.374.118-.374.117-.373.116-.373.114-.373.113-.372.111-.372.109-.371.109-.371.106-.371.106-.37.103-.37.103-.37.101-.369.099-.368.098-.369.096-.367.095-.368.094-.367.092-.366.091-.367.089-.365.088-.366.087-.365.085-.364.083-.364.082-.364.081-.363.079-.363.078-.363.077-.362.075-.362.073-.361.073-.361.071-.36.069-.36.068-.359.067-.359.065-.359.064-.358.062-.358.062-.357.059-.357.059-.357.057-.356.055-.356.054-.355.053-.355.052-.354.05-.354.049-.353.047-.353.046-.353.045-.352.043-.351.042-.352.041-.35.039-.351.038-.349.037-.35.035-.349.034-.348.033-.348.031-.348.03-.347.029-.347.027-.346.026-.345.025-.346.023-.345.022-.344.021-.344.019-.343.018-.343.017-.343.016-.342.014-.341.013-.341.012-.341.01-.34.009-.339.008-.34.007-.338.005-.338.004-.338.003-.337.001-.337.001-.336-.002-.336-.002-.335-.003-.335-.005-.334-.006-.334-.008-.334-.008-.332-.01-.333-.011-.331-.012-.332-.014-.331-.015-.33-.016-.33-.017-.329-.018-.329-.02-.328-.021-.328-.022-.328-.023-.326-.025-.327-.026-.326-.027-.325-.028-.325-.029-.324-.031-.324-.032-.323-.033-.323-.034-.322-.035-.322-.037-.321-.037-.32-.039-.321-.04-.319-.042-.319-.042-.319-.044-.318-.044-.317-.046-.317-.048-.317-.048-.316-.049-.315-.051-.315-.052-.314-.052-.314-.055-.313-.055-.313-.056-.312-.058-.312-.058-.311-.06-.311-.061-.31-.062-.309-.063-.309-.064-.308-.066-.308-.066-.308-.068-.306-.068-.307-.07-.305-.071-.305-.072-.305-.074-.304-.074-.303-.075-.303-.077-.302-.077-.302-.079-.301-.08-.301-.08-.3-.082-.299-.083-.299-.084-.299-.086-.298-.086-.297-.087-.296-.089-.296-.089-.296-.09-.295-.092-.294-.093-.294-.093-.293-.095-.293-.096-.292-.097-.291-.098-.291-.098-.291-.1-.289-.101-.29-.102-.288-.103-.288-.105-.287-.105-.287-.106-.286-.107-.286-.108-.285-.109-.284-.111-.284-.111-.283-.112-.283-.113-.282-.114-.282-.116-.28-.116-.281-.117-.279-.118-.279-.12-.279-.12-.278-.121-.277-.122-.276-.123-.276-.124-.276-.125-.274-.127-.275-.127-.273-.128-.273-.129-.272-.13-.272-.13-.271-.132-.271-.133-.269-.134-.27-.135-.268-.135-.268-.137-.267-.137-.267-.139-.266-.139-.266-.141-.264-.141-.265-.142-.263-.143-.263-.144-.262-.145-.262-.146-.261-.147-.26-.148-.26-.148-.259-.15-.259-.15-.257-.152-.257-.152-.257-.153-.256-.154-.255-.155-.255-.156-.254-.156-.253-.158-.252-.159-.252-.159-.252-.16-.25-.161-.25-.162-.25-.163-.248-.164-.248-.164-.248-.166-.246-.166-.246-.167-.246-.168-.245-.169-.244-.17-.243-.17-.243-.172-.242-.172-.241-.173-.241-.174-.24-.174-.239-.176-.239-.176-.238-.178-.237-.178-.237-.178-.235-.18-.236-.181-.234-.181-.234-.182-.233-.183-.233-.184-.232-.184-.231-.185-.23-.187-.23-.186-.229-.188-.229-.189-.227-.189-.227-.19-.226-.191-.226-.191-.225-.193-.224-.193-.224-.194-.222-.195-.223-.195-.221-.196-.221-.197-.22-.198-.219-.198-.218-.2-.218-.2-.217-.2-.217-.202-.215-.202-.215-.203-.215-.204-.213-.204-.213-.205-.212-.206-.212-.207-.21-.207-.21-.208-.209-.209-.209-.209-.208-.211-.207-.211-.206-.211-.206-.213-.205-.213-.204-.213-.203-.215-.203-.215-.202-.216-.201-.216-.2-.217-.2-.218-.199-.219-.198-.219-.198-.22-.197-.22-.196-.222-.195-.222-.194-.222-.194-.224-.193-.223-.192-.225-.192-.225-.191-.226-.19-.227-.189-.227-.188-.228-.188-.228-.187-.229-.186-.23-.186-.23-.184-.231-.184-.232-.184-.232-.182-.233-.182-.234-.181-.234-.18-.235-.179-.235-.179-.236-.177-.237-.177-.237-.177-.238-.175-.238-.175-.239-.174-.24-.173-.24-.172-.241-.172-.241-.171-.242-.17-.242-.169-.244-.168-.243-.168-.245-.167-.244-.166-.246-.165-.246-.165-.246-.163-.247-.163-.248-.162-.248-.162-.249-.16-.25-.16-.249-.159-.251-.158-.251-.157-.251-.157-.252-.156-.253-.154-.253-.155-.254-.153-.254-.152-.255-.152-.255-.151-.256-.15-.256-.149-.257-.149-.257-.147-.258-.147-.258-.146-.259-.145-.259-.145-.26-.143-.261-.143-.26-.142-.262-.141-.262-.14-.262-.139-.263-.139-.263-.138-.264-.137-.264-.136-.265-.135-.265-.134-.265-.134-.266-.133-.267-.132-.267-.131-.267-.13-.268-.129-.269-.129-.269-.128-.269-.127-.27-.126-.27-.125-.271-.124-.271-.124-.271-.122-.272-.122-.272-.121-.273-.12-.273-.119-.274-.119-.274-.117-.275-.117-.274-.116-.276-.115-.275-.114-.277-.113-.276-.112-.277-.112-.277-.11-.278-.11-.278-.109-.279-.108-.278-.107-.28-.107-.279-.105-.28-.104-.281-.104-.281-.103-.281-.102-.281-.101-.282-.1-.283-.099-.282-.099-.283-.097-.284-.097-.283-.096-.284-.094-.285-.094-.284-.094-.286-.092-.285-.091-.286-.09-.286-.09-.286-.089-.287-.087-.287-.087-.288-.086-.287-.085-.288-.084-.289-.084-.289-.082-.289-.081-.289-.081-.29-.079-.29-.079-.29-.078-.29-.077-.291-.076-.291-.075-.292-.074-.292-.073-.292-.073-.292-.071-.293-.071-.292-.069-.294-.069-.293-.068-.294-.067-.294-.065-.294-.065-.294-.064-.295-.064-.295-.062-.295-.061-.296-.06-.296-.06-.296-.058-.296-.058-.296-.057-.297-.055-.297-.055-.297-.054-.298-.053-.298-.052-.297-.051-.299-.05-.298-.049-.299-.048-.298-.047-.299-.047-.3-.045-.299-.044-.3-.044-.3-.042-.3-.042-.3-.04-.3-.04-.301-.039-.301-.037-.301-.037-.301-.036-.301-.035-.302-.034-.302-.033-.302-.031-.302-.031-.302-.03-.303-.03-.302-.028-.303-.027-.303-.026-.303-.025-.303-.024-.304-.024-.303-.022-.304-.021-.304-.02-.304-.02-.304-.018-.304-.017-.304-.017-.305-.015-.305-.015-.304-.013-.305-.012-.305-.012-.305-.01-.306-.01-.305-.008-.305-.008-.306-.006-.306-.006-.306-.004-.305-.004-.306-.002-.307-.002-.306-.001-.306.001-.306.001-.307.003-.306.003-.307.005-.307.005-.306.007-.307.007-.307.009-.307.009-.307.011-.307.012-.308.012-.307.014-.307.014-.307.016-.308.017-.307.017-.308.019-.307.02-.308.02-.307.022-.308.023-.307.024-.308.025-.308.025-.308.027-.307.028-.308.029-.308.03-.308.031-.307.032-.308.033-.308.035-.308.035-.308.036-.307.037-.308.039-.308.039-.308.04-.307.042-.308.042-.308.044-.308.044-.307.046-.308.047-.308.047-.307.049-.308.05-.307.051-.308.052-.307.053-.308.054-.307.055-.307.056-.308.058-.307.058-.307.059-.307.061-.307.061-.307.063-.307.064-.307.065-.306.065-.307.067-.307.068-.306.069-.307.07-.306.072-.306.072-.306.073-.306.075-.306.075-.306.077-.306.078-.306.078-.305.08-.306.081-.305.082-.305.083-.305.085-.305.085-.305.086-.305.088-.304.088-.305.09-.304.091-.304.092-.305.093-.303.094-.304.095-.304.097-.303.097-.304.099-.303.099-.303.101-.303.102-.302.103-.303.104-.302.105-.303.106-.302.108-.302.108-.301.11-.302.111-.301.112-.301.113-.301.114-.301.115-.3.117-.301.117-.3.119-.3.12-.3.12-.299.123-.3.123-.299.124-.299.125-.299.127-.298.128-.298.129-.298.13-.298.131-.298.132-.297.133-.297.135-.297.136-.297.137-.296.138-.296.139-.296.14-.296.141-.296.143-.295.144-.295.145-.294.146-.295.147-.294.148-.294.15-.293.15-.294.152-.293.153-.292.154-.293.156-.292.156-.292.158-.292.159-.291.16-.291.161-.291.162-.29.164-.29.164-.29.166-.29.167-.289.169-.289.169-.288.171-.289.171-.288.173-.287.174-.288.176-.287.176-.286.178-.287.179-.286.18-.285.181-.286.182-.285.184-.284.185-.284.186-.284.187-.284.188-.283.19-.283.191-.283.192-.282.193-.281.194-.282.196-.281.196-.281.198-.28.2-.28.2-.279.202-.279.202-.279.205-.278.205-.278.206-.278.208-.277.209-.277.21-.276.211-.276.213-.276.213-.275.215-.275.217-.274.217-.274.219-.273.22-.273.221-.273.222-.272.224-.272.224-.271.226-.271.228-.271.228-.27.23-.269.231-.269.232-.269.233-.268.235-.268.236-.267.237-.267.238-.267.24-.266.241-.265.242-.265.243-.265.245-.264.246-.263.247-.263.248-.263.25-.262.251-.262.252-.261.253-.26.255-.261.256-.259.257-.259.259-.259.259-.258.261-.258.262-.257.264-.256.265-.257.266-.255.267-.255.268-.255.27-.254.271-.253.273-.253.273-.252.275-.252.277-.252.277-.25.279-.251.28-.249.281-.249.283-.249.284-.248.285-.248.286-.246.288-.247.289-.246.29-.245.292-.244.293-.244.294-.244.295-.243.297-.242.298-.242.3-.241.3-.241.302-.24.303-.239.305-.239.306-.238.307-.238.309-.237.309-.236.311-.236.313-.235.314-.234.315-.234.316-.234.318-.232.319-.232.32-.232.321-.23.323-.231.325-.229.325-.229.327-.228.328-.228.33-.227.33-.226.333-.226.333-.225.335-.224.336-.224.338-.223.338-.222.341-.222.341-.221.343-.22.344-.22.345-.219.347-.218.348-.218.35-.217.351-.216.352-.215.354-.215.354-.214.357-.214.357-.213.359-.212.36-.211.362-.211.363-.21.364-.209.366-.208.367-.208.368-.207.37-.207.371-.205.373-.205.374-.204.375-.204.376-.202.378-.202.379-.201.381-.201.382-.2.384-.199.384-.198.386-.197.388-.197.389-.196.39-.195.392-.194.393-.194.394-.193.396-.192.397-.191.398-.191.4-.19.402-.189.402-.188.404-.187.406-.187.407-.186.408-.185.409-.184.411-.183.413-.183.414-.182.415-.181.416-.18.418-.179.42-.179.421-.177.422-.177.423-.176.425-.176.427-.174.427-.174.43-.172.43-.172.432-.171.434-.171.435-.169.436-.169.437-.167.44-.167.44-.166.442-.165.443-.164.445-.164.446-.162.448-.162.449-.161.45-.16.452-.159.453-.158.455-.157.456-.156.458-.156.459-.154.46-.154.462-.153.463-.152.465-.151.466-.15.468-.149.469-.149.47-.147.472-.146.474-.146.475-.145.476-.143.478-.143.479-.142.48-.141.482-.14.484-.139.485-.138.486-.137.488-.136.489-.136.491-.134.492-.134.494-.132.495-.131.497-.131.498-.13.499-.128.501-.128.503-.127.504-.125.505-.125.507-.124.508-.123.51-.121.511-.121.513-.12.514-.119.516-.118.517-.117.519-.115.52-.115.521-.114.523-.113.525-.112.526-.111.528-.11.529-.108.53-.108.532-.107.533-.106.535-.104.537-.104.538-.103.539-.101.541-.101.543-.1.544-.098.545-.098.547-.096.548-.095.55-.095.552-.093.553-.092.554-.091.556-.091.557-.089-.06-.359-.059-.357-.057-.357-.056-.356-.054-.354-.053-.354-.051-.352-.05-.351-.048-.35-.047-.349-.045-.348-.043-.347-.042-.346-.041-.344-.039-.344-.037-.342-.036-.342-.035-.34-.033-.339-.031-.338-.03-.337-.029-.336-.027-.335-.025-.334-.024-.332-.023-.332-.021-.331-.019-.329-.018-.329-.017-.327-.015-.326-.014-.326-.012-.324-.011-.323-.009-.322-.008-.321-.007-.32-.005-.319-.003-.318-.002-.317-.001-.316.001-.314.002-.314.004-.313.005-.311.006-.311.008-.309.009-.309.011-.308.012-.306.014-.305.015-.305.016-.303.018-.303.019-.301.02-.3.022-.3.023-.298.025-.297.026-.297.027-.295.029-.294.03-.293.032-.293.033-.291.034-.29.036-.289.036-.289.039-.287.039-.286.041-.286.043-.284.043-.283.045-.283.047-.281.048-.28.049-.28.05-.278.051-.277.053-.277.055-.275.055-.275.057-.273.058-.273.06-.272.061-.27.062-.27.063-.269.065-.267.066-.267.067-.266.069-.265.07-.264.071-.263.072-.262.074-.261.075-.26.076-.259.078-.259.078-.257.08-.256.081-.256.083-.254.084-.254.085-.253.086-.251.087-.251.089-.25.09-.249.091-.248.092-.247.094-.246.095-.246.096-.244.097-.243.099-.243.099-.242.101-.24.102-.24.103-.239.105-.238.105-.237.107-.236.108-.236.11-.234.11-.234.112-.232.112-.232.114-.231.115-.23.117-.229.117-.228.119-.227.119-.227.121-.225.122-.225.123-.224.125-.223.125-.222.127-.221.127-.221.129-.219.13-.219.132-.217.132-.217.133-.216.135-.215.135-.215.137-.213.138-.213.139-.212.14-.211.141-.21.142-.209.144-.208.144-.208.145-.207.147-.205.148-.205.148-.205.15-.203.151-.203.152-.201.153-.201.154-.2.155-.2.157-.198.157-.198.158-.196.16-.196.16-.196.162-.194.162-.194.164-.192.164-.192.166-.191.166-.191.168-.189.169-.189.169-.188.171-.187.172-.186.173-.186.173-.185.175-.184.176-.183.177-.182.177-.182.179-.181.18-.18.181-.179.181-.179.183-.177.184-.177.184-.176.186-.176.186-.174.188-.174.188-.174.19-.172.19-.171.192-.171.192-.17.193-.17.194-.168.195-.168.197-.167.197-.167.197-.165.199-.165.2-.164.201-.163.202-.163.202-.162.204-.161.204-.161.205-.159.206-.159.207-.158.208-.158.209-.157.21-.156.211-.155.211-.155.213-.154.213-.153.214-.152.215-.152.216-.151.217-.15.218-.15.218-.149.22-.148.22-.148.221-.147.222-.146.223-.145.224-.145.224-.144.225-.143.227-.143.227-.142.227-.141.229-.141.23-.14.23-.139.231-.139.232-.137.233-.138.233-.136.235-.136.235-.135.236-.135.237-.134.237-.133.239-.132.239-.132.24-.132.24-.13.242-.13.242-.129.243-.129.244-.128.244-.127.246-.127.246-.126.247-.125.247-.125.249-.124.249-.124.25-.123.25-.122.252-.121.252-.121.252-.121.254-.119.254-.119.255-.119.256-.118.256-.117.258-.116.257-.116.259-.116.259-.114.26-.114.261-.114.261-.113.262-.112.263-.112.264-.111.264-.11.265-.11.265-.11.266-.108.267-.109.268-.107.268-.107.269-.106.269-.106.27-.105.271-.105.272-.104.272-.103.273-.103.273-.102.274-.102.275-.101.275-.101.553-.199.555-.198.557-.194.56-.193.563-.191.565-.188.567-.186.569-.184.572-.182.575-.179.576-.178.579-.175.581-.174.583-.171.586-.169.587-.167.59-.165.592-.163.594-.161.596-.159.598-.157.6-.155.602-.153.604-.151.606-.15.608-.147.61-.145.612-.144.613-.141.616-.14.617-.138.619-.136.621-.135.622-.132.625-.131.625-.129.628-.127.629-.125.631-.124.633-.122.633-.12.636-.119.637-.117.639-.115.64-.113.641-.112.643-.111.644-.108.646-.108.647-.105.648-.104.65-.103.651-.101.652-.099.653-.098.655-.096.656-.095.657-.094.658-.092.659-.091.66-.089.662-.088.662-.086.664-.085.664-.084.665-.082.667-.081.667-.08.668-.078.669-.077.67-.076.671-.074.671-.074.672-.072.673-.071.674-.069.674-.069.676-.067.675-.066.677-.065.677-.064.677-.063.679-.061.678-.061.679-.059.68-.059.68-.057.681-.056.681-.056.681-.054.682-.053.682-.052.682-.052.683-.05.683-.05.683-.048.684-.048.684-.047.683-.046.684-.045.685-.044.684-.043.375-.024.374-.026.372-.027.371-.029.368-.03.368-.031.365-.033.364-.034.362-.036.36-.037.359-.038.357-.04.355-.041.353-.043.352-.044.35-.045.349-.047.347-.048.345-.049.343-.051.342-.052.34-.053.338-.055.337-.056.335-.057.333-.059.332-.06.33-.061.328-.063.326-.064.325-.065.323-.067.322-.067.319-.069.319-.071.316-.071.315-.073.313-.074.311-.076.309-.076.308-.078.307-.079.304-.081.303-.081.301-.083.3-.084.297-.086.296-.086.295-.088.292-.089.291-.09.29-.091.287-.093.286-.094.285-.094.282-.097.281-.097.279-.098.278-.1.275-.101.274-.101.273-.103.271-.105.269-.105.267-.107.265-.107.264-.109.263-.11.26-.111.259-.112.257-.113.256-.114.254-.116.252-.116.25-.118.249-.119.247-.119.245-.121.244-.122.242-.123.24-.124.238-.125.237-.126.236-.128.233-.128.232-.129.23-.13.228-.132.227-.132.225-.134.223-.134.222-.136.22-.136.218-.137.217-.139.215-.139.213-.141.211-.141.21-.143.208-.143.207-.144.204-.146.203-.146.202-.147.199-.148.198-.149.197-.15.194-.151.193-.152.191-.153.19-.154.188-.155.186-.155.184-.157.183-.157.181-.159.179-.159.178-.16.176-.161.174-.162.173-.163.171-.163.169-.165.167-.165.166-.166.164-.167.163-.168.16-.169.159-.17.158-.17.155-.171.154-.173.153-.173.15-.173.149-.175.147-.175.146-.176.143-.177.143-.178.14-.179.139-.179.137-.18.135-.181.134-.182.132-.182.13-.183.129-.184.126-.185.126-.185.123-.187.122-.187.12-.187.118-.189.117-.189.115-.19.113-.19.112-.191.11-.192.108-.193.107-.193.105-.194.103-.195.101-.196.1-.196.098-.196.097-.198.094-.198.093-.199.092-.199.089-.2.088-.201.086-.201.085-.202.083-.203.081-.203.079-.204.078-.204.076-.206.075-.205.072-.207.071-.207.07-.207.067-.208.066-.209.064-.209.063-.21.061-.21.059-.211.057-.212.056-.212.054-.213.052-.213.051-.213.049-.215.047-.215.046-.215.044-.216.042-.216.04-.217.039-.217.037-.218.036-.219.034-.219.032-.219.03-.22.029-.22.027-.221.025-.221.023-.222.022-.222.02-.223.019-.223.017-.224.015-.224.013-.225.012-.224.01-.226.008-.226.007-.226.005-.226.003-.228.002-.227-.001-.228-.001-.228-.004-.229-.005-.229-.007-.229-.009-.23-.01-.23-.012-.231-.014-.231-.015-.231-.017-.232-.019-.232-.021-.232-.022-.233-.024-.233-.025-.233-.028-.234-.028-.234-.031-.234-.032-.235-.035-.235-.035-.235-.038-.236-.039-.235-.041-.237-.042-.236-.044-.237-.046-.237-.048-.237-.049-.238-.051-.237-.053-.238-.054-.239-.056-.238-.058-.239-.06-.239-.061-.239-.063-.24-.064-.24-.066-.24-.068-.24-.07-.24-.071-.241-.073-.241-.075-.241-.076-.241-.079-.241-.079-.242-.082-.242-.083-.242-.085-.242-.087-.242-.088-.243-.09-.242-.091-.243-.094-.243-.095-.243-.097-.243-.098-.243-.1-.244-.102-.244-.104-.243-.105-.244-.107-.244-.108-.244-.111-.244-.112-.244-.113-.245-.116-.244-.117-.245-.119-.244-.12-.245-.122-.245-.124-.244-.126-.245-.127-.245-.129-.245-.131-.245-.132-.245-.134-.245-.136-.245-.138-.245-.139-.245-.141-.246-.142-.245-.144-.245-.146-.245-.148-.245-.149-.246-.151-.245-.153-.245-.154-.245-.156-.245-.158-.245-.16-.245-.161-.245-.163-.245-.164-.245-.167-.245-.168-.245-.169-.245-.172-.245-.173-.244-.175-.245-.176-.244-.178-.245-.18-.244-.182-.244-.183-.244-.185-.244-.186-.244-.189-.244-.19-.244-.192-.243-.193-.244-.195-.243-.197-.243-.198-.243-.201-.243-.202-.243-.203-.242-.205-.243-.207-.242-.209-.242-.211-.242-.212-.242-.213-.241-.216-.242-.217-.241-.219-.241-.221-.241-.222-.24-.224-.241-.225-.24-.228-.24-.229-.239-.231-.24-.232-.239-.234-.239-.236-.239-.238-.238-.239-.239-.241-.238-.242-.238-.245-.237-.246-.237-.247-.237-.25-.237-.251-.236-.253-.236-.254-.236-.256-.236-.258-.235-.26-.235-.261-.234-.263-.235-.265-.234-.266-.233-.268-.234-.27-.232-.272-.233-.273-.232-.275-.232-.276-.232-.279-.231-.28-.231-.281-.23-.284-.231-.285-.229-.286-.23-.289-.229-.29-.228-.292-.228-.293-.228-.296-.228-.297-.227-.298-.226-.301-.226-.302-.226-.303-.225-.306-.225-.307-.224-.309-.224-.31-.224-.313-.223-.313-.223-.316-.222-.317-.222-.319-.221-.321-.221-.322-.22-.325-.22-.325-.219-.328-.219-.329-.218-.331-.218-.333-.217-.334-.217-.336-.216-.338-.216-.339-.215-.341-.215-.343-.214-.344-.214-.346-.213-.348-.212-.35-.212-.351-.212-.353-.211-.355-.21-.356-.21-.358-.209-.36-.208-.362-.208-.363-.208-.365-.207-.366-.206-.368-.205-.37-.205-.372-.205-.373-.203-.375-.204-.377-.202-.379-.202-.38-.201-.382-.201-.383-.2-.385-.199-.387-.199-.389-.198-.39-.197-.392-.197-.394-.196-.395-.195-.398-.194-.398-.194-.401-.194-.402-.192-.404-.192-.406-.191-.407-.191-.409-.189-.411-.189-.412-.188-.414-.188-.416-.187-.418-.186-.419-.185-.421-.185-.422-.184-.425-.183-.426-.182-.427-.181-.43-.181-.431-.18-.433-.179-.434-.179-.436-.177-.438-.177-.44-.176-.441-.175-.443-.175-.445-.173-.446-.173-.448-.172-.45-.171-.452-.171-.453-.169-.455-.169-.456-.167-.459-.167-.46-.166-.461-.166-.464-.164-.465-.163-.467-.163-.468-.162-.47-.161-.472-.16-.474-.159-.475-.158-.477-.157-.479-.156-.48-.156-.482-.154-.484-.154-.486-.153-.487-.151-.489-.151-.49-.15-.092-.029-.091-.029-.09-.031-.09-.031-.09-.033-.089-.033-.088-.034-.088-.035-.088-.036-.087-.037-.086-.037-.086-.039-.085-.039-.085-.04-.084-.041-.084-.042-.083-.042-.083-.044-.082-.044-.081-.045-.081-.046-.08-.046-.08-.048-.079-.048-.079-.049-.078-.049-.077-.051-.077-.051-.076-.052-.075-.053-.075-.053-.075-.054-.073-.055-.074-.056-.072-.056-.072-.057-.071-.058-.07-.059-.07-.059-.07-.059-.068-.061-.068-.061-.067-.062-.067-.062-.066-.063-.065-.064-.065-.065-.064-.065-.063-.065-.062-.067-.062-.066-.061-.068-.06-.068-.06-.069-.059-.069-.058-.07-.058-.07-.057-.071-.056-.072-.055-.072-.055-.073-.053-.073-.053-.074-.053-.074-.051-.075-.051-.075-.05-.076-.049-.077-.049-.076-.048-.078-.047-.078-.046-.078-.045-.079-.045-.079-.043-.08-.043-.08-.042-.081-.042-.081-.04-.082-.04-.082-.039-.082-.038-.083-.037-.083-.036-.084-.036-.084-.035-.085-.033-.085-.033-.085-.032-.085-.032-.087-.03-.086-.03-.087-.028-.087-.028-.087-.027-.088-.026-.088-.025-.089-.024-.089-.023-.089-.022-.089-.022-.09-.02-.09-.02-.09-.019-.091-.017-.091-.017-.091-.016-.092-.015-.091-.014-.092-.013-.093-.012-.092-.011-.093-.011-.093-.009-.093-.008-.094-.007-.093-.007-.094-.005-.094-.004-.094-.003-.095-.003-.095-.001-.094v-.19l.002-.096.003-.095.004-.096.004-.096.006-.095.007-.096.008-.095.009-.095.009-.095.011-.094.012-.094.013-.094.013-.093.015-.094.016-.092.016-.093.018-.092.018-.092.02-.092.02-.091.021-.091.022-.091.024-.09.024-.09.025-.089.025-.09.027-.088.028-.089.028-.088.03-.088.03-.087.031-.087.033-.086.032-.086.034-.086.035-.085.035-.085.037-.084.037-.084.038-.083.039-.083.04-.083.04-.082.041-.082.043-.081.043-.08.043-.081.045-.079.045-.08.046-.078.047-.078.048-.078.049-.077.049-.077.05-.076.051-.075.051-.076.052-.074.053-.074.054-.073.055-.073.055-.072.056-.072.057-.071.057-.071.058-.069.059-.07.059-.068.06-.068.061-.068.062-.067.062-.066.063-.066.064-.065.064-.064.065-.064.065-.063.067-.062.067-.062.067-.061.068-.06.069-.06.069-.059.07-.058.071-.058.071-.056.072-.057.073-.055.073-.055.073-.054.075-.053.075-.053.075-.052.076-.051.076-.05.078-.049.077-.049.078-.048.079-.047.08-.047.079-.046.081-.044.081-.044.081-.044.082-.042.082-.042.083-.041.084-.04.084-.039.084-.038.085-.038.086-.036.086-.036.086-.035.087-.034.087-.033.088-.032.088-.032.089-.03.089-.03.09-.029.09-.027.09-.027.091-.026.091-.025.092-.025.092-.023.093-.022.093-.021.093-.021.094-.019.094-.019.413-.076.413-.074.414-.073.413-.072.414-.07.413-.069.413-.068.414-.066.413-.064.413-.063.414-.062.413-.061.413-.059.414-.057.413-.057.413-.054.414-.054.413-.052.413-.05.413-.05.414-.048.413-.046.413-.045.413-.044.413-.042.414-.041.413-.04.413-.038.413-.037.413-.035.413-.034.414-.033.413-.031.413-.03.413-.029.413-.027.413-.026.413-.024.413-.023.413-.022.413-.021.413-.019.413-.018.413-.016.413-.015.413-.014.413-.012.413-.011.413-.01.413-.008.413-.007.413-.006.413-.004.412-.003.413-.002h.413l.413.001zm6.094 15.208l.44.214.439.215.437.215.435.217.434.218.432.218.43.219.429.221.427.22.425.222.424.222.422.224.421.224.418.225.417.226.416.227.414.228.412.228.41.229.409.23.407.231.405.231.404.232.402.234.401.234.398.234.398.236.395.236.393.237.392.237.391.239.389.239.387.24.385.241.384.242.382.242.38.243.379.244.378.245.375.245.374.246.372.247.37.247.369.248.367.249.365.25.364.25.362.251.361.252.358.253.358.253.354.253.354.255.352.255.35.256.35.258.346.257.345.257.344.259.342.26.34.26.339.261.337.261.335.262.333.263.332.263.33.264.329.265.327.265.324.266.324.267.321.267.321.268.318.269.316.269.316.27.313.27.311.271.31.272.308.272.307.274.305.273.302.274.302.275.3.276.298.276.296.277.294.276.292.278.293.279.289.279.287.279.287.282.284.28.282.281.281.283.28.282.277.283.276.284.274.284.272.285.271.286.268.285.267.288.266.287.263.288.263.288.259.288.258.289.258.292.255.291.252.289.252.293.25.292.247.292.247.294.245.295.242.293.241.296.24.296.237.295.236.297.233.297.232.297.231.299.229.299.227.299.224.299.224.301.222.302.218.299.219.303.217.304.214.302.212.303.211.304.208.304.207.304.206.307.204.307.201.305.2.307.198.308.195.307.195.309.193.31.19.309.189.309.188.312.184.311.183.31.182.313.179.312.178.313.176.314.174.314.172.314.169.315.169.315.166.316.164.316.162.316.161.318.159.318.157.319.155.318.152.318.151.32.149.321.147.319.145.32.143.322.141.323.14.323.136.321.135.323.134.324.131.325.129.323.127.326.125.325.122.324.122.327.119.327.116.326.115.328.113.328.111.329.108.328.106.327.105.331.102.329.099.329.099.331.096.331.094.332.091.331.089.332.087.331.085.332.083.336.081.332.078.332.076.335.074.333.072.335.07.336.067.334.064.334.063.337.061.336.058.335.055.336.054.337.051.338.049.336.046.338.045.337.041.338.04.339.037.337.034.337.033.34.03.339.027.338.025.338.023.339.02.34.017.338.016.339.012.34.011.34.007.338.006.341.002.338.001.34-.003.341-.005.336-.007.34-.01.34-.012.338-.015.341-.018.339-.02.338-.023.338-.026.339-.028.338-.03.339-.034.339-.035.337-.039.336-.041.338-.044.338-.046.336-.049.335-.052.337-.055.337-.057.334-.059.334-.063.335-.065.335-.068.333-.07.332-.074.334-.076.333-.078.33-.082.332-.083.329-.087.329-.089.33-.093.33-.094.327-.098.326-.1.327-.103.327-.105.324-.108.323-.112.324-.114.324-.116.321-.118.32-.122.321-.125.32-.127.317-.129.316-.133.317-.135.316-.137.313-.14.313-.143.313-.146.312-.148.309-.15.307-.154.309-.156.306-.158.305-.162.305-.163.301-.166.302-.169.301-.171.299-.174.298-.176.295-.179.296-.182.295-.182.29-.187.292-.189.29-.19.287-.194.286-.196.286-.198.284-.201.281-.203.281-.205.28-.208.278-.209.274-.212.275-.216.273-.216.271-.22.271-.221.267-.223.266-.226.266-.229.263-.229.261-.233.26-.235.258-.236.256-.239.255-.241.253-.243.252-.245.249-.247.248-.249.246-.252.244-.253.242-.255.241-.258.239-.259.238-.261.235-.262.233-.266.232-.267.23-.269.229-.271.226-.272.224-.275.223-.277.222-.278.219-.279.217-.282.215-.284.214-.285.212-.287.21-.29.208-.29.206-.293.205-.294.202-.296.201-.298.2-.299.197-.301.195-.302.193-.305.192-.306.19-.307.188-.31.186-.31.184-.312.182-.315.181-.316.179-.316.176-.32.176-.32.173-.321.171-.324.17-.325.168-.327.166-.329.165-.329.162-.33.16-.332.158-.334.157-.337.156-.337.153-.337.151-.34.15-.342.148-.343.146-.345.144-.345.142-.347.141-.35.139-.35.138-.351.135-.353.133-.354.132-.356.13-.357.128-.359.127-.36.124-.362.123-.363.122-.364.119-.365.117-.367.116-.369.114-.37.113-.371.111-.373.108-.374.108-.375.105-.376.103-.379.102-.38.101-.38.098-.383.097-.383.095-.384.093-.387.091-.389.09-.388.088-.391.087-.391.084-.393.083-.395.081-.397.08-.396.078-.398.076-.401.074-.401.073-.402.07-.404.07-.406.067-.407.066-.408.064-.41.062-.41.061-.412.059-.414.057-.414.056-.417.054-.418.052-.419.05-.42.049-.421.047-.424.045-.424.044-.425.042-.428.04-.429.038-.429.037-.431.035-.434.034-.433.031-.435.03-.417.027-.686.044-.666.043-.665.044-.665.044-.664.046-.664.046-.663.047-.662.048-.662.049-.661.049-.66.051-.66.052-.659.052-.658.054-.658.054-.656.055-.655.057-.656.057-.654.058-.653.06-.652.06-.651.061-.65.063-.649.063-.648.065-.648.066-.645.066-.645.068-.644.069-.642.07-.641.072-.64.072-.639.074-.637.074-.636.076-.635.077-.633.079-.632.079-.63.081-.629.082-.627.084-.627.084-.624.086-.622.087-.622.088-.619.09-.618.091-.616.092-.614.094-.613.095-.611.097-.609.097-.607.099-.606.101-.603.102-.602.103-.599.105-.598.106-.595.107-.594.109-.591.11-.589.112-.587.113-.586.115-.583.116-.58.118-.579.119-.576.121-.573.122-.572.123-.569.125-.567.127-.564.128-.562.13-.559.131-.557.133-.554.134-.552.136-.549.137-.546.139-.544.141-.541.142-.538.143-.536.145-.532.147-.53.148-.527.15-.525.152-.521.153-.518.154-.516.157-.512.157-.509.16-.507.161-.503.162-.5.164-.497.166-.494.167-.491.169-.487.171-.484.172-.49.176-.231.085-.238.087-.237.088-.237.089-.236.089-.236.09-.233.089-.234.09-.232.091-.231.09-.232.092-.229.091-.23.093-.229.092-.226.093-.227.093-.225.094-.224.093-.224.095-.224.095-.221.095-.222.096-.22.095-.219.097-.219.096-.217.097-.217.098-.216.098-.214.098-.214.098-.213.099-.212.099-.211.1-.21.1-.21.101-.208.1-.207.101-.207.102-.205.102-.205.102-.203.103-.203.102-.201.104-.202.104-.199.103-.199.105-.198.105-.197.105-.196.105-.195.106-.194.106-.193.107-.193.106-.191.108-.19.107-.189.108-.188.108-.187.109-.187.109-.185.109-.184.109-.184.111-.182.11-.181.11-.181.111-.18.112-.178.111-.178.112-.176.113-.175.112-.174.113-.174.113-.173.114-.172.114-.169.114-.17.114-.169.115-.168.116-.166.115-.165.115-.165.117-.165.117-.162.117-.161.116-.16.117-.16.118-.159.118-.158.119-.157.118-.155.119-.155.12-.154.119-.152.12-.152.12-.151.121-.149.12-.149.121-.148.122-.147.122-.145.121-.146.123-.144.123-.142.123-.142.122-.142.125-.14.124-.138.123-.138.125-.138.125-.136.125-.136.126-.133.125-.134.126-.133.127-.13.126-.131.127-.131.128-.128.127-.127.128-.127.128-.125.128-.126.13-.124.129-.123.13-.122.129-.121.131-.121.13-.119.131-.119.132-.118.131-.116.132-.116.132-.114.133-.115.133-.113.134-.113.133-.111.135-.111.134-.109.135-.109.135-.108.135-.107.137-.106.136-.106.137-.105.138-.103.137-.103.138-.102.139-.101.138-.101.14-.099.14-.098.14-.099.141-.097.141-.096.142-.095.141-.095.143-.094.144-.093.143-.092.143-.092.145-.09.145-.09.145-.089.146-.089.147-.087.147-.087.148-.086.148-.085.149-.084.149-.084.151-.083.15-.081.151-.082.151-.08.153-.08.153-.079.154-.079.154-.077.155-.077.155-.076.156-.075.157-.074.157-.074.159-.073.159-.072.16-.072.16-.07.161-.07.161-.069.163-.069.164-.068.164-.066.164-.067.166-.065.167-.065.166-.064.168-.063.171-.062.169-.062.17-.061.171-.06.173-.059.173-.059.174-.057.175-.057.176-.057.177-.055.177-.054.178-.054.181-.053.18-.053.181-.051.184-.051.182-.05.184-.049.186-.048.186-.048.189-.046.187-.046.189-.045.192-.044.191-.043.192-.043.194-.041.195-.041.196-.04.197-.039.197-.038.2-.037.2-.037.201-.035.204-.035.203-.034.205-.033.206-.031.206-.032.209-.03.21-.029.21-.028.212-.027.213-.027.214-.025.216-.025.217-.023.218-.023.219-.021.22-.021.222-.019.222-.019.225-.018.226-.016.226-.016.228-.014.23-.014.23-.012.232-.012.233-.01.235-.009.235-.009.237-.007.239-.006.24-.005.241-.004.242-.003.243-.001.246-.001.247.001.247.001.249.003.251.004.251.005.253.006.255.008.257.008.257.01.258.011.261.012.261.014.263.014.264.016.266.017.266.018.269.02.27.021.271.022.273.023.274.024.276.026.277.027.278.028.28.03.281.031.283.032.284.034.285.035.287.036.288.037.291.039.29.04.293.042.294.043.296.044.297.046.298.047.3.048.301.05.303.056.331.182 3.372-.576 3.328-1.306 3.114-1.97 2.743-2.533 2.232-2.969 1.61-3.254.905-.54.086-.522.085-.52.085-.52.087-.517.087-.515.089-.515.089-.512.091-.511.091-.51.092-.507.093-.507.095-.505.095-.502.096-.502.097-.5.097-.499.099-.497.1-.495.101-.494.101-.492.103-.491.103-.489.104-.487.106-.486.106-.485.107-.483.108-.481.108-.48.11-.478.111-.477.111-.475.112-.474.113-.472.115-.471.114-.469.116-.467.117-.466.117-.465.119-.463.119-.461.12-.46.121-.459.122-.457.122-.455.124-.453.124-.453.125-.451.126-.449.126-.447.128-.447.128-.445.13-.442.129-.442.131-.441.132-.439.132-.436.133-.436.134-.435.135-.432.136-.431.136-.43.137-.428.138-.427.139-.425.139-.424.14-.423.141-.42.142-.42.143-.417.143-.417.144-.414.144-.414.146-.412.146-.41.147-.409.148-.408.148-.406.149-.405.15-.403.151-.401.151-.4.152-.399.153-.398.154-.395.154-.395.155-.393.155-.391.157-.39.157-.389.157-.387.159-.386.159-.384.159-.383.161-.381.161-.38.162-.379.162-.377.163-.375.164-.375.164-.372.165-.372.166-.37.167-.368.167-.368.167-.366.169-.364.169-.363.169-.361.171-.36.171-.359.171-.357.172-.356.173-.355.173-.353.174-.352.175-.35.175-.349.176-.347.176-.346.177-.345.178-.344.178-.341.179-.341.179-.339.18-.338.181-.336.181-.336.182-.334.182-.332.182-.331.184-.33.184-.328.185-.327.184-.325.186-.325.187-.323.186-.322.188-.32.188-.318.188-.318.189-.316.189-.315.19-.314.191-.312.191-.31.191-.31.192-.308.193-.307.193-.305.194-.305.194-.303.195-.301.195-.301.196-.299.196-.297.197-.297.197-.295.198-.293.197-.293.199-.291.2-.29.199-.288.2-.288.201-.286.201-.284.201-.284.202-.282.203-.281.203-.279.203-.279.204-.277.204-.275.205-.275.206-.273.205-.272.206-.271.207-.269.207-.268.207-.268.208-.266.209-.263.208-.264.209-.262.21-.261.21-.259.21-.258.211-.257.211-.256.212-.255.212-.253.213-.252.212-.251.214-.249.214-.249.214-.247.214-.246.216-.245.215-.243.215-.243.216-.241.217-.24.217-.239.217-.237.218-.237.218-.235.218-.234.219-.232.219-.232.22-.231.219-.229.221-.228.22-.227.221-.226.222-.224.221-.224.222-.221.222-.222.223-.22.223-.218.224-.218.224-.216.224-.215.224-.215.225-.212.225-.212.226-.211.226-.209.225-.209.227-.207.227-.206.227-.205.228-.204.227-.203.229-.201.228-.2.228-.2.229-.198.23-.197.229-.196.23-.195.231-.194.23-.192.231-.192.231-.19.232-.189.231-.189.233-.187.232-.186.232-.185.234-.183.232-.183.234-.182.234-.18.234-.18.234-.178.235-.178.235-.176.235-.175.235-.174.237-.173.236-.172.235-.171.237-.17.237-.168.237-.168.237-.166.238-.166.238-.164.238-.164.239-.162.238-.162.239-.16.239-.159.24-.158.239-.157.24-.156.24-.156.241-.154.24-.152.24-.152.242-.151.241-.15.242-.149.242-.148.242-.147.242-.145.242-.145.243-.144.243-.143.243-.141.243-.141.244-.14.244-.138.244-.138.244-.137.245-.135.244-.135.245-.134.245-.132.246-.132.245-.13.245-.13.247-.129.246-.127.246-.127.246-.125.247-.125.247-.124.248-.123.247-.121.247-.121.248-.12.248-.118.248-.118.248-.117.248-.116.249-.115.248-.114.25-.112.248-.112.25-.111.25-.11.249-.109.249-.108.251-.108.25-.106.25-.105.251-.104.251-.103.25-.103.251-.101.251-.1.251-.1.252-.098.252-.098.251-.097.252-.095.252-.095.252-.094.253-.092.252-.092.253-.091.252-.09.253-.089.253-.088.253-.088.254-.086.253-.085.254-.085.254-.083.253-.082.254-.082.254-.081.254-.079.254-.079.255-.078.254-.077.255-.076.255-.075.254-.074.255-.074.256-.072.255-.072.255-.07.256-.07.255-.069.256-.067.255-.067.256-.066.256-.065.255-.064.256-.064.257-.062.256-.061.257-.061.256-.06.256-.058.257-.058.256-.057.257-.056.257-.055.257-.054.257-.054.256-.052.258-.052.257-.05.257-.05.257-.049.258-.048.257-.047.257-.046.258-.046.257-.044.257-.044.258-.042.258-.042.258-.041.258-.04.258-.039.257-.038.257-.038.259-.036.258-.036.258-.035.257-.033.258-.033.259-.033.257-.031.259-.03.258-.03.258-.028.258-.028.258-.027.258-.026.258-.025.258-.024.258-.024.258-.022.259-.022.258-.021.258-.02.258-.019.258-.018.259-.018.257-.016.258-.016.258-.015.258-.014.259-.013.257-.012.259-.011.258-.011.257-.01.258-.009.258-.008.258-.007.258-.006.257-.005.258-.005.257-.004.258-.003.257-.002.258-.001.257-.001.257.001.258.001.257.002.257.003.258.004.256.005.257.005.257.006.257.008.257.008.256.008.257.01.256.011.257.011.257.012.255.013.256.014.257.014.256.016.255.016.256.017.256.018.255.019.255.019.256.021.255.021.255.022.254.022.256.024.255.025.254.025.254.026.255.027.253.027.254.029.254.029.254.03.254.031.253.032.254.033.253.033.252.034.253.035.253.036.253.036.252.038.252.038.252.039.252.04.252.04.251.041.252.043.25.043.252.043.25.045.251.045.25.046.251.047.25.048.249.048.25.049.25.05.249.051.248.052.249.052.25.053.248.054.247.055.249.055.247.057.248.057.246.058.248.058.247.06.246.06.247.061.246.061.245.063.246.063.246.064.245.065.244.065.244.066.245.067.244.068.244.069.244.069.243.07.243.071.242.071.243.073.243.073.241.074.242.074.242.076.24.076.241.076.24.078.24.079.241.078.239.08.239.081.24.081.237.082.239.083.238.083.238.085.238.085.236.085.237.087.237.087.235.088.236.089.237.089.234.09.234.091.235.091.235.092.233.093.233.094.233.095.233.095.233.096.232.096.232.097.23.098.231.099.231.1.23.099.23.101.229.102.229.102.229.103.229.104.227.104.227.105.227.106.228.107.227.106.224.108.226.109.226.109.224.11.224.111.225.111.223.112.223.113.223.113.222.114.222.115.222.115.22.117.221.117.22.117.22.118.219.119.219.12.219.12.218.12.217.122.216.122.218.123.216.123.215.125.216.124.214.126.215.126.214.127.213.128.213.128.213.128.212.13.211.13.212.131.21.131.209.132.211.133.209.133.208.134.208.135.208.135.207.136.207.137.206.136.205.138.205.139.206.139.204.14.203.14.203.141.202.142.203.143.202.143.201.142.199.145.201.145.2.145.199.146.198.147.197.147.198.148.197.148.195.15.197.15.196.15.194.15.193.152.193.153.194.153.193.152.19.154.191.155.192.155.19.156.19.156.189.157.188.158.188.158.187.159.188.159.185.16.185.161.186.161.184.161.184.162.183.164.183.163.182.164.181.165.181.165.18.165.179.167.179.167.179.167.178.168.177.169.177.17.176.169.175.17.175.172.174.171.173.172.173.172.172.173.171.175.172.174.171.174.169.176.169.176.169.176.167.177.167.178.167.179.166.179.166.178.164.18.163.181.164.181.163.181.162.182.161.182.161.184.16.184.16.184.158.184.158.185.157.186.157.187.156.187.155.187.155.188.154.188.153.189.153.19.152.19.151.191.151.192.15.191.149.192.148.191.148.195.147.193.147.194.145.196.146.195.144.196.144.196.143.196.142.198.141.199.142.198.139.198.139.199.139.201.139.2.137.201.136.202.136.201.135.204.135.203.134.202.132.205.132.205.132.205.13.205.13.206.129.206.129.208.128.208.128.207.125.208.125.211.126.209.124.209.123.211.123.211.121.213.122.212.12.211.119.214.12.214.118.213.117.215.116.214.116.216.115.217.115.216.113.217.112.217.112.219.112.218.11.219.109.219.109.222.109.219.107.221.106.222.106.221.104.223.105.223.103.223.102.225.103.223.1.225.1.227.1.225.098.226.098.227.097.228.096.227.095.228.095.23.094.229.092.23.092.23.092.23.09.231.089.234.09.231.088.232.086.234.087.234.086.234.084.235.084.235.083.235.082.236.081.237.081.238.079.236.079.239.078.239.077.239.076.239.076.241.074.242.075.239.072.242.072.243.071.242.07.242.069.244.069.244.068.246.067.245.066.244.064.246.064.247.064.247.062.248.062.248.06.249.06.249.059.249.058.249.057.253.056.25.055.251.055.253.053.251.053.253.051.255.051.254.05.254.049.255.048.256.047.255.046.256.045.258.044.259.044.257.042.259.042.259.04.259.04.261.038.259.038.262.037.262.036.261.034.264.034.264.034.263.032.264.031.265.03.265.029.266.028.265.027.267.026.269.025.267.025.268.023.269.022.271.021.269.021.269.019.272.018.272.017.272.017.272.015.272.014.274.014.275.012.274.011.275.01.276.009.277.009.277.007.276.006.277.005.28.004.278.003.28.002.28.001.28-.001.281-.001.281-.002.282-.004.284-.004.282-.005.284-.007.284-.008.284-.008.286-.01.287-.011.285-.012.286-.013.288-.014.289-.015.287-.017.29-.017.289-.019.29-.019.291-.021.291-.022.292-.023.291-.024.293-.025.294-.027.294-.027.293-.029.296-.03.296-.031.295-.032.297-.033.297-.034.298-.036.297-.036.299-.038.3-.039.299-.041.301-.041.3-.043.303-.043.301-.045.302-.046.304-.048.304-.048.303-.05.305-.051.305-.052.305-.053.307-.055.308-.056.307-.057.307-.058.309-.059.309-.061.309-.062.31-.063.311-.065.31-.065.313-.067.312-.068.312-.07.315-.07.313-.072.314-.073.315-.075.315-.076.318-.077.316-.078.317-.08.316-.081.319-.082.319-.084.32-.085.319-.086.32-.087.321-.089.322-.09.321-.091.323-.093.324-.094.323-.096.323-.096.325-.098.326-.1.325-.101.327-.102.326-.103.328-.105.327-.106.328-.108.329-.109.329-.11.331-.112.331-.113.33-.115.331-.115.333-.118.332-.118.333-.121.334-.121.335-.123.333-.124.335-.126.337-.128.336-.128.336-.13.337-.131.339-.134.337-.134.339-.135.34-.138.34-.139.34-.14.34-.141.342-.143.342-.145.342-.146.343-.148.343-.148.343-.15.346-.153.345-.153.344-.155.346-.157.347-.158.367-.168 3.38-1.091 3.543-.266 3.506.575 3.272 1.384 2.855 2.114 2.278 2.726.21.322.188.286.189.282.188.279.19.278.191.275.191.272.191.27.192.268.194.265.194.264.194.26.195.258.195.256.197.253.196.251.198.249.198.246.199.245.199.242.2.239.201.238.201.234.202.233.203.231.203.229.204.226.204.224.205.221.205.22.207.217.207.216.207.212.208.212.209.209.21.207.209.204.211.203.212.201.212.198.213.197.212.194.214.193.216.191.215.188.215.186.218.186.217.183.217.179.219.179.221.179.22.174.22.173.222.171.223.17.223.168.224.165.225.165.226.162.226.16.228.159.227.157.229.155.23.153.231.152.231.149.232.148.233.147.235.145.234.143.237.141.236.14.238.137.24.138.239.134.24.133.243.132.242.129.244.128.245.127.246.125.247.123.248.122.249.12.251.118.251.117.253.116.254.114.254.112.256.11.257.109.26.108.26.106.26.104.263.103.264.101.264.1.266.098.267.096.27.096.27.093.271.091.274.091.274.089.274.087.279.086.278.084.279.082.282.081.283.079.283.078.287.076.288.075.288.072.29.072.292.07.293.068.294.066.298.065.297.063.299.062.302.06.304.059.304.057.304.054.308.054.31.052.311.05.312.049.313.046.317.045.318.044.319.042.321.04.322.038.324.037.325.035.329.033.329.032.331.029.332.028.334.026.337.025.338.023.34.021.341.019.343.017.344.015.347.014.349.012.35.01.352.009.353.006.356.005.357.002.359.001.361-.001.362-.003.364-.004.366-.007.369-.008.369-.011.37-.012.374-.014.375-.016.376-.018.378-.02.382-.022.381-.024.384-.026.385-.027.387-.03.391-.032.39-.033.392-.036.394-.037.397-.04.398-.041.399-.044.402-.046.403-.047.405-.05.406-.051.409-.054.411-.056.412-.057.413-.06.416-.062.417-.064.418-.065.422-.068.423-.07.423-.072.427-.075.428-.076.428-.078.432-.08.433-.083.434-.084.437-.087.437-.089.44-.091.442-.093.443-.095.445-.097.447-.099.448-.102.45-.103.452-.106.453-.108.456-.11.456-.112.458-.114.46-.116.463-.119.464-.121.464-.122.467-.125.469-.128.469-.129.472-.131.474-.134.475-.136.476-.137.479-.141.481-.142.481-.145.484-.146.485-.149.485-.151.489-.153.49-.156.491-.157.494-.16.494-.162.496-.164.499-.166.499-.169.501-.17.503-.173.504-.175.506-.178.508-.179.509-.182.511-.184.512-.186.514-.188.515-.191.517-.193.519-.195.52-.197.521-.199.523-.201.525-.204.527-.206.545-.216 3.424-.901 3.539-.074 3.459.758 3.184 1.547 2.733 2.25.191.199.17.177.172.176.171.175.171.173.172.173.172.171.172.17.172.168.172.168.173.166.172.164.173.164.171.161.173.162.174.16.172.158.174.158.173.156.172.154.174.154.175.153.173.15.173.149.175.15.174.147.172.145.175.145.175.144.174.142.175.141.175.141.175.138.175.138.174.135.175.135.176.134.175.133.176.131.174.129.177.13.176.128.175.126.176.125.177.124.177.123.176.122.177.12.176.119.178.119.176.117.176.114.179.116.178.113.177.112.178.112.179.11.178.109.177.106.178.107.18.106.178.104.179.102.181.103.179.1.178.099.18.099.18.097.182.097.18.095.179.093.181.093.182.092.182.091.181.089.183.089.182.087.182.086.182.085.183.084.184.083.185.083.182.08.185.079.184.079.184.077.187.077.185.076.186.074.185.073.187.072.188.071.187.071.188.068.188.068.189.067.188.066.19.065.189.063.191.063.19.062.192.06.193.06.191.058.192.057.194.057.194.056.194.054.194.053.197.052.194.051.197.05.199.05.196.047.197.047.2.046.199.045.2.043.202.043.201.042.202.04.203.04.202.038.205.037.205.037.205.035.206.034.206.033.207.031.211.031.209.03.209.029.211.027.21.026.214.026.212.024.214.023.216.022.216.021.216.019.216.019.219.017.22.016.219.015.22.014.223.013.222.011.224.011.225.009.225.008.227.007.227.005.229.005.228.003.23.001.233.001h.232l.233-.002.235-.003.234-.005.237-.005.238-.007.238-.009.239-.009.242-.011.241-.012.243-.014.244-.014.244-.016.246-.018.247-.019.25-.02.248-.021.25-.023.252-.024.252-.026.255-.027.254-.028.257-.03.257-.032.258-.032.259-.034.26-.036.263-.037.265-.039.264-.04.264-.041.265-.043.269-.045.269-.046.27-.047.272-.049.273-.051.273-.052.274-.053.278-.056.277-.056.277-.058.281-.06.281-.062.282-.063.283-.064.285-.067.286-.068.287-.069.289-.072.29-.072.289-.074.293-.077.294-.078.294-.079.296-.081.298-.083.297-.084.299-.087.301-.088.303-.089.304-.092.304-.093.305-.094.307-.097.308-.098.31-.101.311-.102.311-.103.314-.106.314-.107.316-.109.318-.111.318-.113.319-.114.321-.116.322-.119.324-.12.325-.122.325-.123.326-.125.329-.128.331-.129.33-.132.332-.133.333-.134.334-.137.336-.139.339-.141.338-.142.339-.145.341-.146.341-.148.345-.151.345-.152.345-.154.348-.156.348-.159.35-.159.372-.172 3.615-1.142 3.787-.199 3.715.757 3.407 1.664.467.307.449.293.448.291.448.288.447.287.445.283.446.282.444.279.443.277.444.275.442.272.441.27.44.268.44.266.439.262.437.261.438.259.436.256.436.253.435.252.434.249.433.247.432.245.431.242.431.24.431.238.429.236.427.232.427.231.427.228.425.226.425.224.425.222.422.219.422.217.422.215.421.212.419.21.418.208.418.205.417.203.416.201.416.199.414.196.412.194.413.192.413.19.41.186.41.185.409.183.408.18.406.178.407.176.406.174.403.171.404.169.403.167.4.164.401.162.401.16.398.158.398.156.398.153.395.151.395.148.394.147.393.144.393.143.392.139.389.138.389.135.389.133.388.131.387.129.385.127.384.124.384.122.383.12.383.118.38.115.379.113.379.112.379.109.376.107.376.104.376.103.374.1.372.098.373.096.371.094.37.092.37.09.369.088.366.085.366.083.366.081.365.079.364.077.362.075.362.073.36.07.361.069.358.066.357.064.358.063.356.06.354.058.354.056.354.054.352.052.351.05.351.048.349.046.348.044.348.042.347.04.346.037.345.036.343.034.344.032.343.029.341.028.34.026.34.024.339.022.337.019.337.018.337.016.336.014.333.012.335.01.333.008.331.007.331.004.331.002h.33l.329-.001.328-.004.327-.005.326-.008.327-.009.325-.011.324-.013.324-.015.322-.017.322-.019.323-.021.32-.022.32-.025.32-.026.318-.029.318-.03.318-.032.317-.034.316-.036.315-.038.317-.04.313-.041.313-.044.315-.045.313-.048.311-.049.311-.051.312-.053.311-.055.31-.056.309-.059.308-.061.31-.062.309-.065.307-.066.307-.068.307-.07.306-.072.306-.074.305-.076.306-.078.305-.08.303-.082.304-.083.305-.086.302-.088.304-.089.303-.092.302-.093.302-.096.301-.097.303-.1.301-.101.3-.103.3-.106.301-.107.301-.11.3-.111.3-.114.299-.115.299-.118.299-.12.299-.121.299-.124.299-.126.299-.128.298-.13.298-.133.298-.134.297-.136.298-.138.298-.141.298-.143.298-.145.296-.147.298-.149.298-.152.296-.153.297-.156.297-.159.297-.16.297-.163.296-.164.297-.167.297-.17.296-.171.296-.173.298-.177.296-.179.296-.18.296-.183.297-.186.297-.187.295-.19.296-.192.297-.195.296-.197.296-.199.297-.202.296-.204.296-.207.296-.209.296-.212.297-.214.295-.216.297-.218.296-.222.296-.224.296-.226.296-.228.296-.231.296-.234.296-.236.296-.239.297-.241.295-.244.297-.246.296-.249.295-.251.324-.278 2.898-1.95 3.27-1.228 3.465-.438 3.473.375 3.292 1.169 2.932 1.898.306.253.286.235.287.234.285.232.285.229.284.228.284.226.282.223.282.221.282.22.28.217.28.215.279.213.278.211.278.209.277.207.276.204.275.203.275.201.274.199.273.196.272.195.272.193.271.19.27.189.269.186.269.185.267.182.266.18.267.179.265.177.265.174.263.172.263.171.263.169.26.165.261.165.26.163.258.16.258.159.257.156.257.155.255.152.254.151.254.148.254.148.252.145.25.142.25.141.25.139.249.138.248.135.246.133.245.131.246.13.245.128.243.126.242.123.241.122.241.12.24.119.238.116.237.114.238.114.236.111.235.109.235.107.233.106.232.103.231.102.231.1.23.099.229.096.227.095.226.092.226.092.226.09.223.087.224.087.221.084.223.083.22.081.218.079.219.078.217.075.217.075.218.073.213.071.213.069.214.068.211.066.211.065.212.063.208.061.207.06.209.058.206.057.204.055.206.054.204.052.203.051.202.049.201.047.2.046.199.045.199.043.198.042.196.04.196.039.196.038.194.036.193.034.193.034.192.031.19.031.189.029.191.027.189.027.187.025.186.023.187.023.187.021.184.02.183.018.184.017.183.016.183.015.181.013.18.012.179.011.181.01.179.008.177.007.176.006.177.005.178.003.176.003.174.001.175-.001.175-.001.172-.002.173-.004.173-.005.172-.006.173-.007.171-.009.169-.009.171-.011.171-.012.169-.013.169-.014.17-.015.169-.017.167-.017.168-.019.167-.02.168-.021.169-.023.166-.023.166-.024.167-.026.166-.027.165-.028.167-.029.167-.031.164-.031.165-.033.166-.034.166-.035.166-.036.164-.037.163-.039.168-.04.166-.041.163-.042.164-.043.166-.045.166-.047.166-.047.164-.048.165-.05.166-.051.165-.052.166-.053.164-.055.167-.056.166-.057.165-.058.167-.061.166-.061.167-.063.168-.064.167-.065.165-.066.169-.068.169-.07.166-.071.167-.071.169-.074.169-.075.17-.077.168-.077.169-.08.171-.081.169-.082.171-.084.17-.085.171-.087.172-.088.17-.089.172-.091.172-.093.172-.094.173-.097.173-.097.174-.099.175-.101.172-.101.174-.104.175-.106.176-.107.176-.109.174-.109.177-.113.175-.113.177-.115.178-.118.177-.118.177-.12.178-.121.178-.124.18-.127.179-.126.179-.129.18-.131.18-.132.18-.134.18-.136.182-.137.181-.14.182-.141.182-.144.182-.144.183-.146.182-.149.184-.15.182-.151.184-.154.186-.157.183-.157.185-.159.184-.161.186-.163.186-.166.185-.166.213-.192 2.683-1.94 3.044-1.303 3.256-.604 3.309.125 3.201.849 2.937 1.529 2.529 2.137.275.291.243.252.241.249.241.244.238.239.236.233.236.23.234.225.241.229.105.1.114.105.115.107.115.106.112.102.114.103.112.102.112.1.113.1.109.095.11.096.113.098.108.093.108.091.109.093.109.092.107.089.107.087.107.088.104.085.105.084.105.083.105.084.104.081.103.08.102.079.101.076.102.077.101.076.099.074.099.072.098.072.099.071.098.07.096.068.097.068.096.066.093.064.095.064.095.064.09.06.092.061.094.061.088.056.089.057.092.057.089.056.088.054.086.052.086.052.086.051.086.05.084.049.081.046.082.047.084.046.08.044.082.045.08.042.077.041.077.04.077.04.077.038.076.038.075.037.073.036.074.035.07.033.073.033.072.033.068.03.07.031.07.03.067.028.066.028.064.026.064.026.067.026.063.025.063.024.061.022.062.023.06.021.057.02.059.021.059.019.058.019.055.017.053.017.056.017.056.017.053.015.052.014.053.015.05.013.048.013.052.013.048.011.046.011.05.012.048.01.044.009.046.01.046.009.042.008.042.007.045.008.044.007.041.007.041.006.042.006.04.005.037.005.042.005.039.004.039.004.038.004.035.003.041.003.038.003.032.002.037.002.038.001.034.002.037.001.037.001h.137l.035-.001h.034l.035-.002.034-.001.035-.002.035-.002.035-.002.033-.003.036-.002.036-.004.033-.003.034-.004.034-.004.037-.004.038-.005.035-.005.036-.005.033-.005.037-.006.039-.007.038-.007.039-.007.038-.008.037-.007.037-.008.043-.01.042-.009.036-.009.042-.011.044-.011.039-.01.045-.012.045-.013.041-.011.044-.014.048-.014.046-.015.044-.014.048-.016.05-.017.048-.016.047-.017.054-.02.049-.018.05-.019.055-.021.054-.022.053-.022.055-.022.055-.024.055-.024.06-.026.058-.026.06-.027.057-.027.06-.029.065-.031.061-.03.064-.032.065-.033.063-.033.065-.034.068-.037.068-.037.069-.038.068-.038.069-.04.074-.042.072-.043.071-.042.075-.045.075-.047.074-.045.078-.05.077-.049.077-.05.081-.053.078-.053.081-.054.082-.056.081-.056.083-.059.085-.061.086-.062.085-.062.085-.062.088-.066.089-.067.09-.069.091-.07.089-.07.091-.072.092-.073.093-.076.093-.076.095-.078.095-.08.097-.082.097-.083.097-.084.098-.085.099-.088.1-.089.1-.09.101-.091.102-.094.103-.095.126-.119 2.28-1.757.274-.172.257-.162.258-.164.259-.165.258-.165.256-.165.255-.165.255-.166.255-.167.253-.166.253-.167.254-.168.251-.167.251-.168.25-.169.249-.168.25-.17.248-.169.247-.17.248-.171.247-.172.245-.17.244-.171.246-.173.243-.171.243-.173.242-.173.242-.174.241-.173.239-.173.24-.175.241-.176.236-.174.238-.175.238-.177.236-.176.236-.177.235-.176.234-.177.233-.178.234-.178.232-.178.232-.179.231-.179.229-.178.23-.18.231-.181.229-.181.226-.18.228-.181.226-.181.225-.181.227-.184.218-.176.453-.371.444-.367.442-.368.44-.37.437-.371.434-.372.431-.374.429-.375.427-.376.424-.378.421-.378.419-.38.416-.381.414-.382.411-.384.409-.385.406-.386.403-.386.401-.389.399-.39.396-.39.393-.392.391-.394.389-.394.386-.395.383-.397.381-.397.378-.399.377-.4.373-.401.371-.402.369-.403.365-.404.364-.405.361-.406.359-.408.357-.409.354-.41.35-.409.349-.412.347-.413.344-.413.342-.415.339-.416.336-.416.334-.417.332-.419.33-.42.327-.421.324-.421.323-.422.319-.423.317-.425.315-.425.313-.426.31-.427.308-.428.306-.429.303-.43.3-.429.298-.432.296-.432.294-.434.291-.433.289-.436.286-.435.284-.436.282-.438.279-.438.277-.439.274-.439.272-.44.271-.442.268-.443.264-.441.263-.444.261-.445.258-.445.256-.445.253-.446.252-.448.249-.448.246-.448.244-.45.242-.449.24-.451.238-.452.234-.452.233-.452.23-.453.229-.455.225-.454.224-.455.221-.456.219-.456.216-.457.215-.458.212-.459.21-.458.207-.459.205-.46.203-.461.201-.46.198-.462.196-.462.193-.462.192-.463.189-.464.187-.464.185-.465.183-.465.18-.466.178-.466.175-.465.174-.467.171-.469.169-.467.166-.467.165-.47.162-.469.16-.469.158-.47.155-.47.153-.471.151-.471.149-.471.147-.471.144-.472.142-.473.14-.472.137-.473.136-.473.133-.474.131-.473.128-.475.127-.475.124-.474.122-.474.12-.476.118-.476.115-.475.113-.476.111-.476.109-.476.107-.477.104-.477.102-.477.1-.476.098-.477.095-.478.094-.478.091-.476.089-.479.087-.478.085-.477.082-.478.08-.479.079-.478.075-.478.074-.478.072-.479.069-.478.067-.479.065-.478.063-.479.061-.479.059-.478.056-.479.054-.478.052-.479.05-.478.048-.479.045-.478.044-.479.041-.478.039-.478.037-.479.035-.477.033-.478.03-.478.029-.478.026-.478.024-.476.022-.477.02-.479.018-.476.015-.477.014-.477.011-.476.01-.477.007-.475.005-.476.003-.475v-.476l-.001-.475-.004-.474-.005-.475-.008-.474-.01-.474-.011-.474-.014-.473-.017-.473-.018-.473-.02-.472-.022-.473-.025-.471-.026-.471-.029-.471-.031-.47-.033-.47-.035-.471-.037-.469-.039-.469-.041-.469-.043-.467-.045-.468-.048-.468-.049-.466-.052-.467-.053-.466-.056-.464-.057-.465-.06-.466-.062-.463-.064-.463-.065-.462-.068-.463-.07-.462-.072-.461-.074-.46-.076-.46-.079-.46-.08-.458-.082-.458-.084-.458-.086-.457-.088-.456-.091-.455-.092-.456-.094-.454-.097-.454-.098-.453-.1-.451-.103-.453-.104-.451-.106-.45-.108-.449-.111-.449-.112-.448-.114-.447-.117-.446-.118-.446-.12-.445-.122-.444-.124-.443-.127-.443-.128-.442-.13-.441-.132-.44-.134-.439-.136-.438-.138-.438-.14-.436-.142-.436-.144-.436-.146-.434-.147-.433-.15-.432-.151-.431-.154-.43-.155-.43-.158-.428-.159-.428-.161-.426-.164-.426-.165-.425-.167-.424-.169-.422-.171-.422-.172-.421-.175-.419-.176-.419-.179-.418-.18-.416-.182-.415-.184-.414-.187-.414-.188-.413-.189-.411-.192-.409-.194-.41-.195-.408-.197-.406-.2-.406-.201-.405-.203-.403-.205-.402-.206-.401-.209-.4-.21-.399-.213-.398-.213-.396-.217-.395-.217-.395-.22-.392-.221-.391-.223-.391-.226-.39-.227-.387-.228-.386-.231-.386-.233-.384-.234-.383-.236-.382-.238-.38-.24-.379-.241-.377-.244-.377-.245-.375-.247-.374-.249-.372-.251-.372-.252-.369-.254-.368-.256-.368-.258-.365-.26-.365-.261-.362-.263-.362-.265-.36-.267-.359-.268-.357-.271-.356-.271-.355-.274-.352-.276-.353-.278-.35-.278-.348-.282-.348-.283-.346-.284-.344-.286-.343-.288-.341-.29-.34-.292-.339-.293-.337-.295-.335-.297-.334-.298-.333-.3-.33-.302-.329-.304-.328-.306-.327-.308-.325-.309-.323-.31-.321-.313-.32-.314-.319-.316-.317-.318-.315-.319-.313-.322-.312-.323-.311-.325-.309-.326-.307-.329-.306-.329-.303-.332-.303-.334-.301-.335-.299-.337-.297-.339-.296-.34-.294-.342-.292-.344-.29-.346-.29-.348-.287-.349-.285-.35-.284-.353-.282-.355-.281-.356-.279-.357-.276-.36-.276-.361-.273-.363-.272-.365-.27-.367-.268-.368-.267-.37-.264-.372-.263-.373-.261-.376-.259-.377-.257-.379-.256-.38-.254-.382-.252-.385-.25-.386-.249-.387-.246-.389-.244-.391-.243-.394-.241-.394-.239-.397-.237-.398-.235-.399-.234-.402-.231-.404-.23-.405-.227-.416-.231-.195-.107-.205-.112-.205-.111-.205-.11-.206-.111-.207-.11-.208-.109-.206-.109-.207-.107-.209-.109-.209-.107-.209-.107-.209-.106-.21-.105-.211-.106-.21-.104-.212-.105-.213-.104-.211-.103-.213-.103-.214-.102-.213-.102-.214-.101-.214-.101-.215-.1-.215-.1-.217-.099-.216-.099-.216-.098-.218-.098-.218-.097-.218-.097-.219-.096-.218-.096-.22-.095-.22-.095-.22-.094-.222-.094-.221-.093-.221-.092-.222-.092-.223-.092-.224-.091-.224-.091-.223-.089-.224-.089-.225-.09-.226-.088-.225-.088-.228-.087-.227-.087-.227-.086-.227-.086-.228-.085-.229-.085-.229-.084-.23-.084-.23-.083-.231-.082-.231-.082-.231-.082-.232-.081-.233-.08-.232-.08-.234-.079-.234-.079-.234-.078-.234-.078-.235-.077-.236-.076-.236-.076-.236-.075-.238-.075-.238-.075-.237-.073-.239-.073-.239-.073-.24-.072-.24-.072-.239-.071-.242-.07-.241-.07-.241-.069-.243-.069-.243-.068-.243-.067-.244-.067-.244-.067-.244-.065-.245-.066-.246-.064-.247-.065-.246-.063-.246-.063-.249-.062-.247-.062-.248-.061-.25-.061-.249-.06-.25-.059-.25-.059-.251-.058-.252-.058-.251-.057-.253-.056-.253-.056-.253-.055-.253-.055-.254-.054-.255-.054-.255-.052-.256-.053-.256-.051-.257-.051-.257-.051-.258-.05-.258-.049-.258-.048-.259-.048-.26-.048-.26-.047-.261-.046-.261-.045-.261-.045-.262-.044-.263-.044-.263-.043-.263-.043-.264-.041-.264-.041-.266-.041-.265-.04-.266-.039-.266-.039-.267-.038-.268-.037-.267-.037-.269-.036-.268-.035-.27-.035-.27-.034-.27-.034-.271-.033-.271-.032-.272-.032-.272-.031-.273-.03-.292-.031-3.299-.741-3.05-1.461-2.644-2.107-2.106-2.646-1.459-3.05-.739-3.299.018-3.382.038-.321.035-.301.035-.302.033-.299.033-.299.032-.298.03-.297.03-.297.03-.296.028-.295.028-.293.026-.294.026-.293.025-.29.024-.293.024-.29.022-.288.022-.289.021-.286.02-.287.019-.287.018-.284.018-.285.017-.283.015-.283.016-.282.014-.279.013-.282.013-.28.012-.277.011-.277.01-.277.01-.276.008-.276.008-.274.007-.274.006-.272.006-.272.004-.271.004-.271.003-.269.002-.268.002-.268.001-.267-.001-.266v-.265l-.002-.265-.003-.263-.003-.263-.004-.262-.005-.261-.005-.26-.006-.26-.008-.26-.007-.257-.009-.256-.009-.257-.011-.256-.01-.254-.012-.255-.013-.252-.013-.251-.014-.253-.014-.25-.016-.25-.016-.249-.017-.249-.018-.247-.018-.246-.019-.246-.02-.244-.021-.245-.021-.243-.022-.242-.023-.242-.023-.242-.025-.239-.025-.239-.025-.24-.027-.237-.027-.236-.028-.236-.028-.236-.03-.234-.03-.234-.03-.233-.032-.232-.032-.232-.033-.23-.033-.23-.035-.23-.034-.227-.036-.228-.036-.227-.037-.225-.038-.226-.038-.223-.039-.223-.04-.224-.041-.223-.041-.22-.042-.222-.042-.219-.043-.218-.044-.219-.044-.217-.046-.217-.046-.217-.046-.214-.047-.215-.048-.213-.048-.212-.05-.213-.05-.212-.05-.212-.051-.209-.052-.208-.052-.209-.054-.209-.053-.207-.055-.206-.054-.205-.057-.206-.056-.204-.057-.202-.057-.203-.059-.203-.059-.202-.059-.2-.06-.2-.061-.2-.061-.197-.063-.198-.063-.198-.063-.197-.064-.196-.064-.194-.066-.195-.066-.194-.066-.192-.067-.193-.068-.192-.068-.189-.069-.191-.07-.192-.071-.189-.07-.188-.072-.188-.072-.187-.072-.185-.074-.186-.074-.186-.074-.185-.076-.184-.076-.184-.076-.182-.077-.183-.078-.181-.078-.18-.079-.18-.08-.181-.08-.18-.081-.177-.081-.178-.083-.178-.082-.176-.083-.176-.085-.177-.083-.173-.086-.175-.085-.174-.087-.173-.087-.174-.088-.172-.087-.17-.089-.171-.091-.172-.089-.169-.09-.168-.092-.17-.092-.168-.093-.168-.094-.169-.093-.164-.094-.167-.095-.165-.097-.166-.096-.165-.096-.162-.099-.165-.099-.164-.098-.162-.099-.161-.101-.163-.101-.162-.101-.159-.102-.159-.104-.161-.103-.159-.104-.158-.105-.159-.105-.157-.106-.158-.106-.156-.108-.156-.108-.156-.109-.156-.109-.155-.11-.154-.111-.154-.112-.155-.112-.153-.112-.152-.114-.153-.113-.15-.115-.152-.116-.152-.116-.15-.117-.15-.117-.15-.119-.15-.118-.147-.12-.149-.121-.149-.12-.148-.121-.146-.122-.146-.125-.148-.123-.146-.124-.145-.126-.146-.125-.144-.128-.145-.127-.144-.128-.144-.129-.143-.128-.142-.131-.143-.132-.143-.131-.141-.132-.141-.134-.142-.135-.141-.134-.14-.135-.139-.137-.14-.137-.139-.137-.139-.139-.138-.139-.138-.14-.138-.141-.138-.141-.136-.143-.137-.143-.136-.143-.135-.145-.136-.146-.135-.147-.136-.147-.134-.147-.134-.149-.133-.15-.134-.15-.134-.151-.132-.151-.132-.153-.132-.154-.132-.153-.131-.156-.131-.156-.131-.156-.129-.158-.13-.159-.131-.159-.128-.159-.129-.162-.129-.162-.128-.162-.128-.163-.127-.165-.127-.165-.127-.166-.127-.166-.126-.168-.125-.169-.126-.168-.124-.171-.125-.171-.125-.172-.124-.172-.123-.174-.124-.175-.123-.175-.122-.176-.122-.177-.122-.179-.123-.179-.121-.178-.119-.181-.121-.183-.121-.182-.12-.182-.118-.185-.12-.185-.119-.185-.118-.188-.118-.187-.118-.189-.117-.191-.118-.189-.116-.191-.116-.192-.116-.194-.115-.194-.116-.194-.114-.196-.115-.197-.113-.198-.114-.199-.114-.199-.113-.2-.112-.202-.113-.202-.112-.203-.111-.204-.111-.205-.111-.206-.11-.207-.11-.208-.11-.208-.109-.211-.109-.21-.108-.212-.108-.212-.108-.214-.107-.214-.107-.215-.107-.216-.106-.217-.106-.218-.105-.22-.105-.219-.104-.221-.105-.223-.104-.222-.103-.223-.103-.225-.103-.226-.102-.227-.102-.227-.101-.228-.101-.23-.101-.23-.1-.231-.1-.233-.1-.232-.098-.234-.099-.237-.099-.235-.097-.236-.097-.239-.097-.238-.097-.241-.096-.24-.096-.242-.095-.242-.095-.244-.094-.245-.095-.245-.093-.246-.093-.248-.093-.248-.092-.25-.092-.25-.092-.252-.091-.252-.09-.253-.091-.254-.089-.255-.09-.256-.088-.257-.089-.257-.088-.26-.087-.26-.088-.26-.086-.261-.086-.264-.086-.264-.086-.264-.085-.265-.084-.267-.084-.268-.084-.269-.083-.268-.082-.271-.083-.271-.082-.272-.081-.273-.081-.274-.08-.275-.08-.277-.08-.277-.079-.278-.078-.278-.078-.281-.078-.28-.077-.282-.077-.283-.076-.284-.076-.284-.075-.285-.075-.287-.074-.288-.074-.288-.074-.29-.073-.29-.072-.291-.072-.292-.072-.293-.071-.294-.07-.296-.071-.296-.069-.296-.069-.299-.069-.291-.067-.608-.136-.604-.133-.608-.132-.612-.129-.615-.127-.62-.125-.623-.123-.627-.122-.63-.119-.635-.118-.638-.115-.641-.113-.646-.112-.649-.109-.653-.108-.657-.105-.661-.103-.663-.102-.668-.099-.672-.097-.675-.096-.679-.093-.682-.091-.687-.089-.689-.087-.694-.085-.698-.083-.7-.081-.705-.079-.708-.077-.712-.075-.716-.072-.719-.071-.723-.068-.726-.067-.73-.064-.734-.062-.737-.06-.74-.058-.745-.056-.748-.054-.752-.052-.778-.051-3.708-.72-3.41-1.623-2.897-2.424-.779-.84-.772-.83-.772-.827-.772-.826-.772-.823-.772-.82-.773-.818-.773-.816-.773-.814-.773-.811-.773-.809-.773-.807-.773-.804-.774-.801-.774-.8-.773-.797-.774-.794-.774-.792-.774-.789-.775-.787-.774-.784-.774-.782-.775-.779-.774-.777-.775-.774-.775-.772-.775-.769-.775-.766-.775-.764-.775-.761-.775-.758-.776-.756-.775-.753-.775-.75-.776-.748-.775-.745-.776-.742-.776-.739-.776-.737-.776-.734-.775-.731-.776-.728-.776-.726-.776-.722-.776-.72-.777-.717-.776-.714-.776-.71-.776-.709-.776-.705-.776-.702-.777-.7-.776-.696-.776-.693-.776-.691-.777-.687-.776-.684-.776-.682-.777-.678-.776-.675-.776-.672-.776-.669-.777-.666-.776-.663-.776-.66-.776-.656-.776-.653-.776-.65-.777-.648-.776-.644-.775-.64-.776-.637-.776-.635-.776-.631-.776-.627-.775-.624-.776-.621-.775-.618-.776-.615-.775-.611-.776-.607-.775-.605-.775-.601-.775-.597-.775-.595-.774-.59-.775-.588-.775-.584-.774-.58-.775-.577-.774-.574-.774-.57-.774-.566-.774-.563-.773-.56-.774-.556-.773-.552-.773-.549-.773-.545-.778-.545-.382-.266-.386-.269-.386-.267-.387-.267-.386-.266-.386-.265-.386-.264-.386-.263-.386-.262-.386-.262-.386-.26-.386-.26-.386-.258-.386-.258-.385-.256-.386-.256-.386-.255-.385-.254-.386-.253-.385-.252-.386-.251-.385-.25-.385-.249-.386-.249-.385-.247-.385-.247-.385-.245-.385-.245-.385-.243-.385-.243-.385-.242-.385-.241-.384-.239-.385-.239-.385-.238-.384-.237-.385-.236-.384-.235-.385-.234-.384-.233-.384-.233-.384-.231-.384-.23-.385-.229-.384-.229-.383-.227-.384-.226-.384-.226-.384-.224-.383-.224-.384-.222-.384-.222-.383-.22-.383-.22-.384-.218-.383-.218-.383-.216-.383-.216-.383-.215-.383-.214-.383-.212-.383-.212-.382-.211-.383-.209-.383-.209-.382-.208-.383-.206-.382-.206-.382-.205-.382-.203-.382-.203-.383-.202-.382-.201-.381-.199-.382-.199-.382-.198-.381-.196-.381-.196-.382-.195-.381-.193-.382-.193-.381-.192-.381-.19-.381-.19-.381-.188-.381-.188-.38-.187-.381-.185-.381-.185-.38-.183-.38-.182-.381-.182-.38-.18-.38-.179-.38-.179-.38-.177-.38-.177-.379-.175-.38-.174-.379-.173-.38-.172-.379-.171-.379-.17-.379-.169-.38-.168-.379-.167-.378-.166-.379-.165-.379-.164-.378-.162-.379-.162-.378-.161-.379-.159-.378-.159-.378-.158-.377-.156-.378-.155-.378-.155-.378-.153-.378-.152-.377-.151-.377-.15-.377-.149-.378-.149-.377-.147-.376-.145-.377-.145-.377-.144-.377-.143-.376-.141-.376-.141-.377-.139-.376-.139-.376-.137-.376-.136-.376-.135-.376-.135-.375-.133-.376-.132-.375-.13-.375-.13-.376-.129-.375-.128-.375-.126-.375-.126-.374-.124-.375-.124-.375-.122-.374-.121-.375-.12-.373-.119-.375-.118-.374-.117-.374-.116-.374-.114-.373-.114-.374-.113-.373-.111-.373-.11-.374-.109-.373-.109-.373-.107-.373-.106-.373-.104-.372-.104-.373-.103-.372-.101-.373-.101-.372-.099-.372-.098-.372-.098-.372-.096-.372-.095-.372-.094-.371-.092-.371-.092-.372-.091-.371-.089-.371-.088-.371-.088-.372-.086-.37-.085-.371-.084-.371-.082-.37-.082-.371-.081-.37-.079-.37-.079-.37-.077-.37-.076-.37-.075-.37-.074-.369-.073-.37-.071-.369-.071-.37-.069-.369-.069-.369-.067-.37-.066-.368-.065-.369-.064-.369-.062-.369-.062-.368-.06-.369-.06-.368-.058-.368-.057-.369-.056-.368-.055-.368-.054-.367-.052-.369-.052-.367-.05-.368-.049-.367-.048-.368-.047-.367-.046-.367-.044-.368-.044-.367-.042-.367-.042-.367-.04-.366-.039-.367-.038-.367-.036-.367-.036-.366-.034-.366-.033-.367-.033-.366-.031-.366-.029-.366-.029-.367-.028-.366-.026-.365-.025-.366-.024-.366-.023-.366-.022-.094-.005.041.02z" fill="#dc8604"/><path d="M626.328 776.352s-71.534-58.97-152.082-28.653c-62.985 23.707-69.666 126.113-116.887 145.824-94.478 39.44-169.346-48.705-91.789-56.085-182.466-14.064-156.019 186.692 110.317 179.162 193.605-5.47 237.812-126.26 237.812-126.26s91.182 106.694 248.754 135.51c204.977 37.49 341.417-103.496 171.287-150.518 0 0 39.41 23.793 12.97 48.504-16.69 15.596-105.337 2.074-142.987-26.367-68.785-51.961-71.582-137.328-171.289-153.25-42.931-6.856-106.106 32.133-106.106 32.133z" fill="#641b00"/><path d="M626.002 782.693s65.053-65.248 133.557-30.474c70.402 35.738 107.503 122.984 157.308 151.426 106.853 61.018 157.943 3.888 132.713-18.485 37.03 20.825-12.59 93.604-140.799 33.801-51.166-23.866-102.109-90.86-138.703-126.852-45.847-45.093-144.076-9.416-144.076-9.416z" fill="#873213"/><path d="M620.099 780.57s-58.983-61.815-132.041-38.054c-80.676 26.24-83.226 147.005-156.635 156.277-104.603 13.211-104.863-55.09-91.593-62.948-25.43 6.875-30.47 104.965 94.882 80.447 76.439-14.951 78.339-61.569 106.784-113.674 46.258-84.737 178.603-22.048 178.603-22.048z" fill="#7f2f12"/><path d="M626.328 776.352s-71.534-58.97-152.082-28.653c-62.985 23.707-69.666 126.113-116.887 145.824-94.478 39.44-169.346-48.705-91.789-56.085-182.466-14.064-156.019 186.692 110.317 179.162 193.605-5.47 237.812-126.26 237.812-126.26s91.182 106.694 248.754 135.51c204.977 37.49 341.417-103.496 171.287-150.518 0 0 39.41 23.793 12.97 48.504-16.69 15.596-105.337 2.074-142.987-26.367-68.785-51.961-71.582-137.328-171.289-153.25-42.931-6.856-106.106 32.133-106.106 32.133z" stroke-width="15" stroke="#4f1803" fill="none"/><path d="M510.411 414.62l-64.336 13.488" stroke-width="15" stroke="#dc8604" fill="none"/><path d="M744.913 327.663l.287.018.286.029.284.04.283.05.281.061.278.072.275.083.272.093.268.104.264.113.259.124.255.133.249.143.243.153.238.162.231.171.224.179.217.188.21.196.203.204.194.212.186.219.177.226 21.222 28.091.169.232.159.239.151.245.141.25.131.256.121.26.112.265.101.269.091.273.08.276.069.278.059.282.048.283.038.285.026.286.015.287.004.287-.006.287-.018.287-.029.286-.04.285-.05.283-.061.28-.072.278-.083.276-.093.271-.104.268-.113.264-.124.26-.133.254-.143.249-.153.244-.162.237-.171.231-.179.225-.188.217-.196.21-.204.202-.212.194-.219.187-.226.177-.232.169-.239.16-.245.15-.25.141-.256.131-.26.122-.265.111-.269.101-.273.091-.276.08-.278.07-.282.059-.283.048-.285.037-.286.026-.287.015-.287.005-.287-.007-.287-.018-.286-.029-.285-.039-.282-.051-.281-.061-.278-.072-.275-.083-.272-.093-.268-.103-.264-.114-.26-.124-.254-.133-.249-.143-.244-.153-.237-.162-.231-.17-.224-.18-.218-.188-.21-.196-.202-.204-.194-.212-.186-.219-.178-.225-21.221-28.092-.169-.232-.16-.239-.15-.245-.141-.25-.131-.256-.122-.26-.111-.265-.101-.269-.091-.272-.08-.276-.07-.279-.059-.281-.048-.284-.037-.285-.026-.286-.016-.287-.004-.287.007-.287.018-.287.028-.286.04-.284.051-.283.061-.281.072-.278.083-.275.093-.272.103-.268.114-.264.123-.259.134-.255.143-.249.153-.243.161-.238.171-.231.18-.224.188-.218.196-.21.204-.202.211-.194.219-.186.226-.178.233-.169.239-.159.244-.151.251-.141.255-.131.261-.121.265-.112.269-.101.272-.091.276-.08.279-.069.281-.059.283-.048.285-.038.286-.026.287-.015.288-.004.287.006z" fill="#dc8604"/></svg>