<svg xmlns="http://www.w3.org/2000/svg" viewBox="0 0 435.884 435.884" enable-background="new 0 0 435.884 435.884" width="512" height="512"><path d="M406.645 292.806c-20.313-20.313-48.785-37.218-76.162-45.223-26.831-7.844-49.58-6.577-65.343 3.411l-112.984-112.984c1.239-3.043 1.89-6.327 1.89-9.713 0-6.878-2.678-13.344-7.542-18.208l-102.547-102.547c-4.864-4.863-11.33-7.542-18.208-7.542s-13.344 2.679-18.207 7.542c-4.864 4.864-7.542 11.33-7.542 18.208s2.678 13.344 7.542 18.208l102.548 102.547c4.864 4.863 11.33 7.542 18.208 7.542 3.387 0 6.673-.652 9.718-1.893l112.981 112.981c-9.992 15.764-11.26 38.514-3.414 65.348 8.005 27.377 24.911 55.849 45.224 76.162 19.415 19.414 39.626 29.239 60.127 29.239.946 0 1.896-.021 2.844-.063 18.742-.83 36.749-9.754 53.52-26.524 16.771-16.771 25.694-34.777 26.524-53.52.95-21.474-8.866-42.66-29.177-62.971zm-108.502-30.298c7.936 0 16.958 1.414 26.728 4.271 24.302 7.105 49.585 22.122 67.632 40.169 22.147 22.147 28.493 44.041 19.051 65.356-6.198-13.159-18.607-29.106-36.954-47.453-19.609-19.608-43.534-39.537-64-53.308-5.199-3.498-9.977-6.493-14.376-9.004.633-.018 1.271-.031 1.919-.031zm40.851 97.95c-17.009-17.009-34.193-37.29-47.146-55.642-11.372-16.111-15.961-25.635-17.812-30.779 5.144 1.85 14.668 6.44 30.78 17.812 18.352 12.953 38.633 30.137 55.641 47.146 35.935 35.934 38.41 52.449 34.697 56.161-3.712 3.712-20.226 1.236-56.16-34.698zm-210.697-226.411c-1.536 0-2.979-.598-4.065-1.684l-102.548-102.549c-1.086-1.085-1.684-2.529-1.684-4.064s.598-2.979 1.684-4.065c1.086-1.087 2.529-1.685 4.065-1.685s2.979.598 4.065 1.685l102.548 102.548c1.086 1.085 1.684 2.529 1.684 4.065 0 1.536-.598 2.98-1.684 4.065-1.085 1.086-2.529 1.684-4.065 1.684zm224.751 281.75c-15.166-.001-30.574-7.768-46.1-23.294-18.047-18.047-33.064-43.331-40.17-67.633-3.09-10.568-4.487-20.256-4.238-28.645 2.51 4.398 5.505 9.176 9.003 14.375 13.771 20.466 33.699 44.391 53.308 64 18.345 18.345 34.292 30.754 47.451 36.953-6.369 2.821-12.789 4.245-19.254 4.244z" fill="#fff"/></svg>