<svg xmlns="http://www.w3.org/2000/svg" viewBox="0 0 279.117 279.117" width="512" height="512" enable-background="new 0 0 279.117 279.117"><path d="M192.525 136.342c-.195-3.147-2.704-5.656-5.851-5.852-.142-.009-.915-.053-2.193-.053l-1.042.01c9.727-13.394 9.211-31.303 9.099-33.627v-40.453c0-3.452-2.798-6.25-6.25-6.25s-6.25 2.798-6.25 6.25v34.476c-5.058.349-12.038 1.405-18.883 4.306 1.416-4.176 2.316-8.697 2.316-13.446 0-17.736-12.541-32.293-17.661-37.497v-37.956c0-3.452-2.798-6.25-6.25-6.25s-6.25 2.798-6.25 6.25v37.955c-5.12 5.204-17.661 19.761-17.661 37.497 0 4.749.9 9.271 2.316 13.446-6.845-2.9-13.825-3.957-18.883-4.306v-34.475c0-3.452-2.798-6.25-6.25-6.25s-6.25 2.798-6.25 6.25v40.453c-.113 2.324-.628 20.234 9.099 33.627l-1.042-.01c-1.279 0-2.052.044-2.193.053-3.147.195-5.656 2.704-5.851 5.852-.055.883-1.088 19.85 9.087 33.861l-1.043-.01c-1.279 0-2.052.044-2.194.053-3.147.195-5.656 2.704-5.851 5.852-.061.977-1.322 24.088 12.724 38.134 10.575 10.575 26.114 12.499 33.992 12.746v45.89c0 3.452 2.798 6.25 6.25 6.25s6.25-2.798 6.25-6.25v-45.89c7.879-.247 23.416-2.171 33.992-12.746 14.046-14.046 12.785-37.157 12.724-38.134-.195-3.148-2.704-5.656-5.851-5.852-.142-.009-.915-.053-2.194-.053l-1.042.01c10.174-14.012 9.141-32.978 9.086-33.861zm-61.889 38.197c-6.224-.558-16.067-2.486-22.48-8.899-6.404-6.405-8.338-16.202-8.898-22.485 6.224.558 16.065 2.487 22.48 8.901 6.404 6.404 8.338 16.201 8.898 22.483zm26.743-22.483c6.409-6.408 16.24-8.34 22.464-8.9-.573 6.299-2.519 16.12-8.88 22.483-6.415 6.414-16.258 8.343-22.482 8.9.56-6.287 2.496-16.08 8.898-22.483zm13.583-26.173c-6.41 6.408-16.241 8.34-22.466 8.899.574-6.299 2.52-16.12 8.882-22.481 6.41-6.408 16.24-8.339 22.464-8.898-.572 6.297-2.518 16.118-8.88 22.48zm-31.416-69.982c4.607 5.392 11.424 15.168 11.424 25.801 0 10.711-6.802 20.447-11.411 25.815-4.609-5.368-11.411-15.104-11.411-25.815 0-10.704 6.791-20.433 11.398-25.801zm-17.808 56.399c6.403 6.404 8.338 16.201 8.897 22.483-6.224-.558-16.067-2.486-22.48-8.9-6.404-6.402-8.338-16.199-8.897-22.481 6.223.557 16.066 2.485 22.48 8.898zm-13.583 93.094c-6.403-6.404-8.338-16.201-8.897-22.483 6.223.558 16.065 2.486 22.48 8.899 6.403 6.404 8.338 16.201 8.897 22.483-6.223-.558-16.066-2.486-22.48-8.899zm62.807-.001c-6.41 6.408-16.241 8.34-22.466 8.899.574-6.299 2.52-16.12 8.882-22.481 6.415-6.414 16.257-8.343 22.48-8.9-.559 6.285-2.494 16.079-8.896 22.482z" fill="#575757"/></svg>