<svg xmlns="http://www.w3.org/2000/svg" viewBox="0 0 475.514 475.514" width="512" height="512" enable-background="new 0 0 475.514 475.514"><path d="M123.745 113.459c-.065 1.105-.951 3.65-1.528 4.479l-33.547 42.269c-5.048 6.373-8.576 16.477-8.576 24.589v266.333c0 13.445 10.941 24.386 24.386 24.386h266.552c13.445 0 24.386-10.941 24.386-24.386v-266.334c0-8.202-3.625-18.362-8.811-24.711l-36.774-44.984c-.626-.862-1.479-3.243-1.536-4.219v-38.342c0-3.243-.667-6.324-1.821-9.153 7.43-6.21 12.323-16.769 12.323-28.775.008-19.11-12.404-34.611-27.71-34.611h-190.721c-15.306 0-27.71 15.501-27.71 34.611 0 12.25 5.121 22.947 12.803 29.1-1.073 2.747-1.715 5.706-1.715 8.828v40.92zm237.631 67.125c.626.862 1.479 3.243 1.536 4.219v258.204h-250.295v-31.149h171.399c13.445 0 24.386-10.941 24.386-24.386v-169.358c0-13.445-10.941-24.386-24.386-24.386h-171.399v-8.844c.065-1.097.951-3.65 1.528-4.479l33.547-42.269c5.04-6.365 8.568-16.477 8.568-24.589v-32.871h159.523v30.214c0 8.202 3.625 18.362 8.811 24.711l36.782 44.983zm-248.759 45.659h163.271v153.094h-163.271v-153.094z" fill="#575757"/></svg>