<svg xmlns="http://www.w3.org/2000/svg" width="512" height="512" viewBox="0 0 178.657 178.657" enable-background="new 0 0 178.657 178.657"><path d="M165.17 152.444c-2.969-2.843-6.051-5.328-8.015-6.843 3.212-9.172 12.973-41.549-.987-62.059 3.845-1.132 7.694-2.407 11.544-3.845 1.32-.493 2.194-1.753 2.194-3.161v-28.248c0-1.057-.495-2.053-1.338-2.691-.843-.639-1.936-.844-2.953-.557-6.352 1.791-12.813 3.267-19.294 4.481-2.011-2.965-9.261-13.395-18.719-23.984-15.021-16.817-27.895-25.403-38.273-25.537-10.378.134-23.252 8.721-38.274 25.537-9.458 10.588-16.708 21.018-18.719 23.984-6.48-1.215-12.941-2.69-19.294-4.481-1.017-.286-2.11-.082-2.953.557-.843.638-1.338 1.634-1.338 2.691v28.248c0 1.408.874 2.668 2.194 3.161 3.85 1.438 7.7 2.713 11.544 3.845-13.96 20.509-4.199 52.886-.987 62.058-1.964 1.516-5.045 4.002-8.015 6.844-7.535 7.214-10.151 12.619-8.234 17.012.711 1.628 2.562 2.426 4.234 1.826 9.927-3.567 23.379.4 23.51.439l.222.059c1.221.281 30.192 6.878 55.003 6.878h2.211c24.811 0 53.78-6.597 55.003-6.878l.222-.059c.131-.041 13.583-4.008 23.51-.439 1.674.6 3.523-.199 4.235-1.826 1.918-4.394-.698-9.798-8.233-17.012zm-75.841-145.693c15.844.298 39.379 29.311 49.677 44.032-17.225 2.712-34.345 3.668-49.677 3.709-15.332-.041-32.452-.997-49.677-3.709 10.298-14.722 33.833-43.734 49.677-44.032zm70.873 156.304c-8.133-.142-15.281 1.85-16.375 2.17-1.888.426-30.061 6.684-53.393 6.684h-2.211c-23.331 0-51.505-6.258-53.393-6.684-1.095-.32-8.242-2.311-16.375-2.17-1.879.031-8.214 1.898-.345-5.691 4.432-4.275 9.345-7.792 9.394-7.827 1.259-.904 1.742-2.548 1.17-3.988-.156-.392-15.376-39.422.483-59.7.104-.133.192-.272.273-.415 17.301 4.336 34.43 5.618 50.865 5.877 11.434.18 36.934-1.621 43.612-2.591 1.845-.269 3.171-1.903 2.948-3.753-.222-1.851-1.908-3.201-3.753-2.948-7.824 1.073-34.021 2.389-34.144 2.393-23.443.745-48.507-1.325-73.458-10.236v-21.479c25.047 6.495 51.34 8.483 73.828 8.542 22.488-.059 48.781-2.047 73.828-8.542v21.479c-5.991 2.821-18.541 5.413-19.044 5.529-1.816.417-2.95 2.229-2.532 4.045.417 1.816 2.229 2.955 4.045 2.533.033-.007 2.792-.646 3.602-.849 6.627 8.982 7.738 17.894 7.454 27.582-.489 16.617-6.6 32.285-6.698 32.532-.572 1.44-.089 3.084 1.17 3.988.049.035 4.962 3.553 9.394 7.827 7.869 7.59 1.534 5.722-.345 5.692z" fill="#575757"/></svg>