<svg xmlns="http://www.w3.org/2000/svg" viewBox="0 0 45.538 45.538" width="512" height="512" enable-background="new 0 0 45.538 45.538"><path d="M6.524 39.935l-.016.111v3.254h32.522v-2.746l-.032-.413c-.206-2.444-1.27-4.714-2.968-6.635-1.619-1.841-3.825-3.349-6.397-4.349-.841.841-1.809 1.524-2.857 2.032-1.238.587-2.587.921-4 .921-1.476 0-2.873-.349-4.143-.984-1.079-.54-2.079-1.286-2.936-2.19-2.587.936-4.793 2.397-6.397 4.222-1.651 1.873-2.667 4.159-2.778 6.635v.142h.002zm16.253-39.935c2.984 0 5.666 1.555 7.587 4.047 1.857 2.413 3.016 5.73 3.016 9.381s-1.159 6.968-3.016 9.381c-1.921 2.508-4.603 4.048-7.587 4.048s-5.682-1.54-7.603-4.048c-1.857-2.413-3.016-5.73-3.016-9.381s1.159-6.968 3.016-9.381c1.921-2.492 4.619-4.047 7.603-4.047zm5.825 5.413c-1.508-1.952-3.571-3.175-5.825-3.175-2.27 0-4.333 1.222-5.841 3.175-1.571 2.032-2.54 4.873-2.54 8.016s.968 5.984 2.54 8.016c1.508 1.968 3.571 3.174 5.841 3.174 2.254 0 4.317-1.206 5.825-3.174 1.571-2.032 2.54-4.873 2.54-8.016 0-3.144-.968-5.985-2.54-8.016zm-24.252 33.522c.302-2.714 1.46-5.19 3.286-7.254 2-2.286 4.809-4.079 8.063-5.111l.714-.222.476.587c.778.921 1.698 1.667 2.73 2.19.968.476 2.032.746 3.159.746 1.079 0 2.111-.254 3.047-.698.984-.476 1.889-1.175 2.667-2.063l.492-.556.714.238c3.222 1.127 6 2.952 8 5.238 1.778 2 2.984 4.365 3.397 6.905h.175v6.603h-37v-6.603h.08z" fill="#fff"/></svg>