<svg xmlns="http://www.w3.org/2000/svg" viewBox="0 0 463.001 463.001" width="512" height="512" enable-background="new 0 0 463.001 463.001"><path d="M303.501 0c-87.948 0-159.5 71.551-159.5 159.5 0 36.188 12.122 69.593 32.507 96.386l-32.311 32.311c-.205.205-.392.421-.569.643-2.645-.551-5.363-.84-8.127-.84-10.55 0-20.47 4.109-27.933 11.572l-95.999 95.999c-7.461 7.459-11.569 17.378-11.569 27.929s4.108 20.471 11.568 27.928c7.463 7.463 17.383 11.572 27.933 11.572s20.47-4.109 27.933-11.572l95.999-95.999c7.461-7.458 11.569-17.377 11.569-27.929 0-2.765-.289-5.484-.84-8.129.222-.176.437-.363.642-.568l32.31-32.31c26.794 20.386 60.199 32.507 96.387 32.507 87.948 0 159.5-71.551 159.5-159.5s-71.552-159.5-159.5-159.5zm-246.675 440.822c-4.629 4.629-10.781 7.178-17.325 7.178s-12.696-2.549-17.326-7.179c-4.627-4.625-7.175-10.776-7.175-17.321s2.548-12.696 7.176-17.322l86.698-86.698 34.647 34.647-86.695 86.695zm97.249-97.354l-34.528-34.528c4.575-3.936 10.258-5.926 15.954-5.926 6.274 0 12.55 2.389 17.326 7.166 4.627 4.625 7.175 10.776 7.175 17.321 0 5.926-2.096 11.526-5.927 15.967zm13.655-38.803c-1.278-1.796-2.706-3.503-4.296-5.092-1.592-1.591-3.301-3.02-5.098-4.299l27.841-27.841c3 3.259 6.134 6.393 9.393 9.393l-27.84 27.839zm135.771-.665c-79.678 0-144.5-64.822-144.5-144.5s64.822-144.5 144.5-144.5 144.5 64.822 144.5 144.5-64.822 144.5-144.5 144.5zm0-272c-70.304 0-127.5 57.196-127.5 127.5s57.196 127.5 127.5 127.5 127.5-57.196 127.5-127.5-57.196-127.5-127.5-127.5zm0 240c-62.032 0-112.5-50.467-112.5-112.5s50.468-112.5 112.5-112.5 112.5 50.467 112.5 112.5-50.468 112.5-112.5 112.5zm52.079-192.562c-3.47-2.262-8.116-1.283-10.378 2.188-2.262 3.47-1.282 8.117 2.188 10.378 22.924 14.94 36.61 40.172 36.61 67.496 0 18.667-6.534 36.86-18.399 51.226-2.638 3.193-2.187 7.921 1.007 10.559 1.398 1.155 3.09 1.717 4.772 1.717 2.16 0 4.304-.929 5.787-2.724 14.079-17.047 21.833-38.632 21.833-60.777.001-32.414-16.231-62.343-43.42-80.063zm-34.724-13.863c-5.688-1.045-11.527-1.575-17.355-1.575-4.143 0-7.5 3.358-7.5 7.5s3.357 7.5 7.5 7.5c4.922 0 9.849.447 14.645 1.328.459.084.914.125 1.364.125 3.549 0 6.703-2.531 7.368-6.146.748-4.074-1.948-7.983-6.022-8.732z" fill="#fff"/></svg>